<?xml version="1.0" encoding="UTF-8" standalone="no"?>
<!-- Created with Inkscape (http://www.inkscape.org/) -->

<svg
   xmlns:dc="http://purl.org/dc/elements/1.1/"
   xmlns:cc="http://creativecommons.org/ns#"
   xmlns:rdf="http://www.w3.org/1999/02/22-rdf-syntax-ns#"
   xmlns:svg="http://www.w3.org/2000/svg"
   xmlns="http://www.w3.org/2000/svg"
   xmlns:sodipodi="http://sodipodi.sourceforge.net/DTD/sodipodi-0.dtd"
   xmlns:inkscape="http://www.inkscape.org/namespaces/inkscape"
   width="24.207916mm"
   height="35.992424mm"
   viewBox="0 0 24.207915 35.992423"
   version="1.1"
   id="svg4701"
   sodipodi:docname="aed-person.svg"
   inkscape:version="0.92.1 r15371"
   inkscape:export-filename="/home/juanar/Escritorio/Infografía SVB/iconos/96px/compression.png"
   inkscape:export-xdpi="96"
   inkscape:export-ydpi="96">
  <title
     id="title5410">Leónidas Life Support Icon Set</title>
  <defs
     id="defs4695" />
  <sodipodi:namedview
     id="base"
     pagecolor="#ffffff"
     bordercolor="#666666"
     borderopacity="1.0"
     inkscape:pageopacity="0.0"
     inkscape:pageshadow="2"
     inkscape:zoom="2.6683078"
     inkscape:cx="30.570012"
     inkscape:cy="57.061955"
     inkscape:document-units="mm"
     inkscape:current-layer="g5076"
     showgrid="false"
     fit-margin-top="0"
     fit-margin-left="0"
     fit-margin-right="0"
     fit-margin-bottom="0"
     inkscape:window-width="1362"
     inkscape:window-height="704"
     inkscape:window-x="0"
     inkscape:window-y="0"
     inkscape:window-maximized="1"
     showguides="true"
     inkscape:guide-bbox="true" />
  <metadata
     id="metadata4698">
    <rdf:RDF>
      <cc:Work
         rdf:about="">
        <dc:format>image/svg+xml</dc:format>
        <dc:type
           rdf:resource="http://purl.org/dc/dcmitype/StillImage" />
        <dc:title>Leónidas Life Support Icon Set</dc:title>
        <cc:license
           rdf:resource="https://www.gnu.org/licenses/gpl-3.0.en.html" />
        <dc:creator>
          <cc:Agent>
            <dc:title>Arbotti Juan Manuel</dc:title>
          </cc:Agent>
        </dc:creator>
        <dc:rights>
          <cc:Agent>
            <dc:title>GNU GPL V3</dc:title>
          </cc:Agent>
        </dc:rights>
        <dc:description>This is an icon set to use in any project realted to basic or advanced life support. Please, don't forge to mention the author in bilbiography.</dc:description>
        <dc:subject>
          <rdf:Bag>
            <rdf:li>life support</rdf:li>
            <rdf:li>medical</rdf:li>
            <rdf:li>cpr</rdf:li>
          </rdf:Bag>
        </dc:subject>
      </cc:Work>
    </rdf:RDF>
  </metadata>
  <g
     inkscape:label="Capa 1"
     inkscape:groupmode="layer"
     id="layer1"
     transform="translate(-6.7338487,-33.942057)">
    <g
       id="g4705"
       transform="matrix(0.33971987,0,0,0.33971987,11.36357,20.277033)">
      <g
         id="g5408"
         transform="translate(-8.6227382,-5.4902534)">
        <g
           id="g5338"
           transform="translate(8.6228501,2.0793992)">
          <g
             id="g4499"
             transform="matrix(1.1925956,0,0,1.1925956,6.1084013,50.242724)">
            <g
               id="g5076"
               transform="matrix(2.4682313,0,0,2.4682313,-5.1381439,-147.81317)">
              <g
                 id="g5045"
                 transform="matrix(0.33971987,0,0,0.33971987,7.4660027,55.100765)">
                <g
                   id="g5497"
                   transform="matrix(2.9436017,0,0,2.9436017,-68.639614,-313.82489)"
                   inkscape:export-xdpi="96"
                   inkscape:export-ydpi="96">
                  <g
                     transform="translate(11.358955,52.050741)"
                     id="g5260">
                    <g
                       id="g5258"
                       transform="matrix(0.33971987,0,0,0.33971987,0.91789927,54.833495)">
                      <path
                         inkscape:connector-curvature="0"
                         style="opacity:1;fill:#000000;fill-opacity:1;stroke:none;stroke-width:1.14085591;stroke-linecap:round;stroke-linejoin:miter;stroke-miterlimit:4;stroke-dasharray:none;stroke-dashoffset:0.74834645;stroke-opacity:1"
                         d="m 44.082031,26.402344 c -2.689059,0 -5.012241,1.32169 -6.189453,3.267578 -1.350395,1.307532 -2.455055,3.210654 -3.02539,5.474609 l -8.441407,33.509766 c -1.220033,4.842932 0.465789,9.414768 3.78125,10.25 3.315462,0.835232 6.967467,-2.391443 8.1875,-7.234375 L 46.6875,38.746094 h 7.15625 L 38.921875,79.609375 c -0.849997,2.327772 -0.406055,4.739535 0.957031,6.191406 L 24.300781,121.42383 c -2.585641,5.91204 -1.197583,12.18885 3.113281,14.07422 4.310867,1.88536 9.863578,-1.35554 12.449219,-7.26758 L 50.25,104.47852 64.587891,129.02148 c 3.25473,5.57176 9.146241,8.14668 13.208984,5.77344 4.062743,-2.37324 4.711762,-8.76808 1.457031,-14.33984 L 58.681641,85.236328 67.474609,61.15625 v 10.818359 c 0,4.994246 2.750873,9.015625 6.169922,9.015625 3.419048,0 6.171875,-4.021379 6.171875,-9.015625 v -34.55664 c 0,-1.360164 -0.20948,-2.643485 -0.576172,-3.796875 -1.558905,0.466591 -3.208673,0.724609 -4.917968,0.724609 -6.073416,0 -11.405033,-3.175121 -14.458985,-7.943359 z"
                         transform="matrix(0.77882796,0,0,0.77882796,-2.6193455,5.9720155)"
                         id="rect5244" />
                      <path
                         inkscape:connector-curvature="0"
                         style="color:#000000;font-style:normal;font-variant:normal;font-weight:normal;font-stretch:normal;font-size:medium;line-height:normal;font-family:sans-serif;font-variant-ligatures:normal;font-variant-position:normal;font-variant-caps:normal;font-variant-numeric:normal;font-variant-alternates:normal;font-feature-settings:normal;text-indent:0;text-align:start;text-decoration:none;text-decoration-line:none;text-decoration-style:solid;text-decoration-color:#000000;letter-spacing:normal;word-spacing:normal;text-transform:none;writing-mode:lr-tb;direction:ltr;text-orientation:mixed;dominant-baseline:auto;baseline-shift:baseline;text-anchor:start;white-space:normal;shape-padding:0;clip-rule:nonzero;display:inline;overflow:visible;visibility:visible;opacity:1;isolation:auto;mix-blend-mode:normal;color-interpolation:sRGB;color-interpolation-filters:linearRGB;solid-color:#000000;solid-opacity:1;vector-effect:none;fill:#000000;fill-opacity:1;fill-rule:nonzero;stroke:none;stroke-width:1.4150759;stroke-linecap:round;stroke-linejoin:miter;stroke-miterlimit:4;stroke-dasharray:none;stroke-dashoffset:0.74834645;stroke-opacity:1;color-rendering:auto;image-rendering:auto;shape-rendering:auto;text-rendering:auto;enable-background:accumulate"
                         d="m 55.265625,7.3867188 c 6.613059,0 11.958984,5.3459252 11.958984,11.9589842 0,6.613059 -5.345925,11.958985 -11.958984,11.958985 -6.613059,0 -11.958984,-5.345926 -11.958984,-11.958985 0,-6.613059 5.345925,-11.9589842 11.958984,-11.9589842 z"
                         id="circle5256" />
                    </g>
                  </g>
                  <path
                     inkscape:connector-curvature="0"
                     style="opacity:1;fill:#000000;fill-opacity:0.99492385;stroke:none;stroke-width:1.3341732;stroke-linecap:round;stroke-linejoin:miter;stroke-miterlimit:4;stroke-dasharray:none;stroke-dashoffset:0.74834645;stroke-opacity:1"
                     d="m 24.099609,70.794922 a 11.428572,11.428572 0 0 0 -6.392578,1.958984 l 2.558594,1.634766 a 8.7290037,8.7290037 0 0 1 3.833984,-0.894531 8.7290037,8.7290037 0 0 1 8.730469,8.728515 8.7290037,8.7290037 0 0 1 -0.0098,0.183594 l 2.416016,1.542969 c 0.05143,0.03285 0.09269,0.0752 0.140625,0.111328 A 11.428572,11.428572 0 0 0 35.529297,82.222656 11.428572,11.428572 0 0 0 24.099609,70.794922 Z"
                     transform="matrix(0.26458333,0,0,0.26458333,11.387011,108.91305)"
                     id="path5340" />
                  <g
                     transform="matrix(0.39464895,0.25204619,-0.25204619,0.39464895,27.857454,56.715315)"
                     id="g5336">
                    <path
                       inkscape:connector-curvature="0"
                       style="color:#000000;font-style:normal;font-variant:normal;font-weight:normal;font-stretch:normal;font-size:medium;line-height:normal;font-family:sans-serif;font-variant-ligatures:normal;font-variant-position:normal;font-variant-caps:normal;font-variant-numeric:normal;font-variant-alternates:normal;font-feature-settings:normal;text-indent:0;text-align:start;text-decoration:none;text-decoration-line:none;text-decoration-style:solid;text-decoration-color:#000000;letter-spacing:normal;word-spacing:normal;text-transform:none;writing-mode:lr-tb;direction:ltr;text-orientation:mixed;dominant-baseline:auto;baseline-shift:baseline;text-anchor:start;white-space:normal;shape-padding:0;clip-rule:nonzero;display:inline;overflow:visible;visibility:visible;opacity:1;isolation:auto;mix-blend-mode:normal;color-interpolation:sRGB;color-interpolation-filters:linearRGB;solid-color:#000000;solid-opacity:1;vector-effect:none;fill:#000000;fill-opacity:1;fill-rule:nonzero;stroke:none;stroke-width:0.62475085;stroke-linecap:round;stroke-linejoin:miter;stroke-miterlimit:4;stroke-dasharray:none;stroke-dashoffset:0.74834645;stroke-opacity:1;color-rendering:auto;image-rendering:auto;shape-rendering:auto;text-rendering:auto;enable-background:accumulate"
                       d="m 15.056641,72.144531 c -0.542235,0.01275 -1.065187,0.287824 -1.382813,0.785157 L 0.89257812,92.943359 C 0.38437679,93.739091 0.61248941,94.775013 1.4082031,95.283203 L 20.294922,107.3457 c 0.795714,0.50819 1.829689,0.28011 2.33789,-0.51562 L 35.416016,86.816406 c 0.508201,-0.795731 0.280088,-1.831654 -0.515625,-2.339844 l -18.886719,-12.0625 c -0.298393,-0.190571 -0.631691,-0.277179 -0.957031,-0.269531 z m 15.248047,11.275391 -8.560547,4.507812 1.748047,0.521485 -7.832032,2.716797 3.511719,1.046875 L 5.3984375,95.292969 13.984375,90.771484 12.111328,90.212891 19.908203,87.507812 16.529297,86.5 Z"
                       transform="matrix(0.47619427,-0.30412586,0.30412586,0.47619427,30.355464,112.87691)"
                       id="rect5141-2" />
                  </g>
                </g>
              </g>
            </g>
          </g>
        </g>
      </g>
    </g>
  </g>
</svg>
