<?xml version="1.0" encoding="UTF-8" standalone="no"?>
<!-- Created with Inkscape (http://www.inkscape.org/) -->

<svg
   xmlns:dc="http://purl.org/dc/elements/1.1/"
   xmlns:cc="http://creativecommons.org/ns#"
   xmlns:rdf="http://www.w3.org/1999/02/22-rdf-syntax-ns#"
   xmlns:svg="http://www.w3.org/2000/svg"
   xmlns="http://www.w3.org/2000/svg"
   xmlns:sodipodi="http://sodipodi.sourceforge.net/DTD/sodipodi-0.dtd"
   xmlns:inkscape="http://www.inkscape.org/namespaces/inkscape"
   width="19.251808mm"
   height="23.220562mm"
   viewBox="0 0 19.251807 23.220561"
   version="1.1"
   id="svg4701"
   sodipodi:docname="aed.svg"
   inkscape:version="0.92.1 r15371"
   inkscape:export-filename="/home/juanar/Escritorio/Infografía SVB/iconos/96px/aed.png"
   inkscape:export-xdpi="96"
   inkscape:export-ydpi="96">
  <title
     id="title5410">Leónidas Life Support Icon Set</title>
  <defs
     id="defs4695" />
  <sodipodi:namedview
     id="base"
     pagecolor="#ffffff"
     bordercolor="#666666"
     borderopacity="1.0"
     inkscape:pageopacity="0.0"
     inkscape:pageshadow="2"
     inkscape:zoom="8.2546558"
     inkscape:cx="40.344579"
     inkscape:cy="97.145696"
     inkscape:document-units="mm"
     inkscape:current-layer="g5242"
     showgrid="false"
     fit-margin-top="0"
     fit-margin-left="0"
     fit-margin-right="0"
     fit-margin-bottom="0"
     inkscape:window-width="1362"
     inkscape:window-height="704"
     inkscape:window-x="0"
     inkscape:window-y="0"
     inkscape:window-maximized="1" />
  <metadata
     id="metadata4698">
    <rdf:RDF>
      <cc:Work
         rdf:about="">
        <dc:format>image/svg+xml</dc:format>
        <dc:type
           rdf:resource="http://purl.org/dc/dcmitype/StillImage" />
        <dc:title>Leónidas Life Support Icon Set</dc:title>
        <cc:license
           rdf:resource="https://www.gnu.org/licenses/gpl-3.0.en.html" />
        <dc:creator>
          <cc:Agent>
            <dc:title>Arbotti Juan Manuel</dc:title>
          </cc:Agent>
        </dc:creator>
        <dc:rights>
          <cc:Agent>
            <dc:title>GNU GPL V3</dc:title>
          </cc:Agent>
        </dc:rights>
        <dc:description>This is an icon set to use in any project realted to basic or advanced life support. Please, don't forge to mention the author in bilbiography.</dc:description>
        <dc:subject>
          <rdf:Bag>
            <rdf:li>life support</rdf:li>
            <rdf:li>medical</rdf:li>
            <rdf:li>cpr</rdf:li>
          </rdf:Bag>
        </dc:subject>
      </cc:Work>
    </rdf:RDF>
  </metadata>
  <g
     inkscape:label="Capa 1"
     inkscape:groupmode="layer"
     id="layer1"
     transform="translate(-19.914105,-45.292801)">
    <g
       id="g4705"
       transform="matrix(0.33971987,0,0,0.33971987,11.36357,20.277033)">
      <g
         id="g5408"
         transform="translate(-8.6227382,-5.4902534)">
        <g
           id="g5338"
           transform="translate(8.6228501,2.0793992)">
          <g
             id="g4499"
             transform="matrix(1.1925956,0,0,1.1925956,6.1084013,50.242724)">
            <g
               id="g5076"
               transform="matrix(2.4682313,0,0,2.4682313,-5.1381439,-147.81317)">
              <g
                 id="g5045"
                 transform="matrix(0.33971987,0,0,0.33971987,7.4660027,55.100765)">
                <g
                   id="g5575"
                   transform="matrix(2.9436017,0,0,2.9436017,-199.87727,-131.70809)">
                  <g
                     transform="matrix(0.40514841,0,0,0.40514841,59.182814,49.131208)"
                     id="g4954">
                    <g
                       id="g5729"
                       transform="translate(-4.722115e-7,-7.4634618)">
                      <g
                         id="g5242"
                         transform="matrix(2.4682314,0,0,2.4682314,-330.19567,-170.04623)">
                        <path
                           style="color:#000000;font-style:normal;font-variant:normal;font-weight:normal;font-stretch:normal;font-size:medium;line-height:normal;font-family:sans-serif;font-variant-ligatures:normal;font-variant-position:normal;font-variant-caps:normal;font-variant-numeric:normal;font-variant-alternates:normal;font-feature-settings:normal;text-indent:0;text-align:start;text-decoration:none;text-decoration-line:none;text-decoration-style:solid;text-decoration-color:#000000;letter-spacing:normal;word-spacing:normal;text-transform:none;writing-mode:lr-tb;direction:ltr;text-orientation:mixed;dominant-baseline:auto;baseline-shift:baseline;text-anchor:start;white-space:normal;shape-padding:0;clip-rule:nonzero;display:inline;overflow:visible;visibility:visible;opacity:1;isolation:auto;mix-blend-mode:normal;color-interpolation:sRGB;color-interpolation-filters:linearRGB;solid-color:#000000;solid-opacity:1;vector-effect:none;fill:#000000;fill-opacity:1;fill-rule:nonzero;stroke:none;stroke-width:1.3341732;stroke-linecap:round;stroke-linejoin:miter;stroke-miterlimit:4;stroke-dasharray:none;stroke-dashoffset:0.74834645;stroke-opacity:1;color-rendering:auto;image-rendering:auto;shape-rendering:auto;text-rendering:auto;enable-background:accumulate"
                           d="M 37.019531 27.810547 C 36.645698 28.741675 36.242912 29.648455 35.740234 30.447266 C 33.945034 33.300159 31.298689 35.263672 28.230469 35.263672 L 25.472656 35.263672 C 25.127056 36.081044 24.760298 36.882152 24.3125 37.59375 C 22.516733 40.447535 19.862802 42.408203 16.794922 42.408203 L 16.488281 42.408203 L 16.488281 82.142578 C 16.488281 84.158956 18.089129 85.759766 20.105469 85.759766 L 67.962891 85.759766 C 69.979269 85.759766 71.580078 84.158956 71.580078 82.142578 L 71.580078 31.427734 C 71.580078 29.411371 69.979269 27.810547 67.962891 27.810547 L 37.019531 27.810547 z M 58.009766 38.943359 C 61.320896 38.942993 64.020615 41.641994 64.021484 44.953125 C 64.021825 48.265102 61.321728 50.965207 58.009766 50.964844 C 54.697766 50.965207 51.997669 48.265102 51.998047 44.953125 C 51.998878 41.641994 54.698635 38.942993 58.009766 38.943359 z M 43.28125 40.634766 L 38.59375 51.513672 L 41.410156 50.707031 L 34.380859 59.603516 L 39.671875 58.089844 L 23.207031 72.796875 L 28.962891 62.683594 L 25.978516 63.541016 L 32.972656 54.681641 L 27.867188 56.142578 L 43.28125 40.634766 z M 58.160156 52.488281 C 61.472119 52.487918 64.172215 55.188023 64.171875 58.5 C 64.172215 61.811977 61.472119 64.512085 58.160156 64.511719 C 54.849025 64.510876 52.15005 61.811131 52.150391 58.5 C 52.15005 55.188869 54.849025 52.489128 58.160156 52.488281 z M 58.160156 65.884766 C 61.471287 65.884399 64.171006 68.583389 64.171875 71.894531 C 64.172215 75.206494 61.472119 77.90659 58.160156 77.90625 C 54.849025 77.905381 52.15005 75.205662 52.150391 71.894531 C 52.15126 68.584239 54.849857 65.885608 58.160156 65.884766 z "
                           id="path4723"
                           transform="matrix(0.26458333,0,0,0.26458333,143.58877,81.421973)" />
                        <path
                           style="color:#000000;font-style:normal;font-variant:normal;font-weight:normal;font-stretch:normal;font-size:medium;line-height:normal;font-family:sans-serif;font-variant-ligatures:normal;font-variant-position:normal;font-variant-caps:normal;font-variant-numeric:normal;font-variant-alternates:normal;font-feature-settings:normal;text-indent:0;text-align:start;text-decoration:none;text-decoration-line:none;text-decoration-style:solid;text-decoration-color:#000000;letter-spacing:normal;word-spacing:normal;text-transform:none;writing-mode:lr-tb;direction:ltr;text-orientation:mixed;dominant-baseline:auto;baseline-shift:baseline;text-anchor:start;white-space:normal;shape-padding:0;clip-rule:nonzero;display:inline;overflow:visible;visibility:visible;opacity:1;isolation:auto;mix-blend-mode:normal;color-interpolation:sRGB;color-interpolation-filters:linearRGB;solid-color:#000000;solid-opacity:1;vector-effect:none;fill:#000000;fill-opacity:1;fill-rule:nonzero;stroke:none;stroke-width:1.3341732;stroke-linecap:round;stroke-linejoin:miter;stroke-miterlimit:4;stroke-dasharray:none;stroke-dashoffset:0.74834645;stroke-opacity:1;color-rendering:auto;image-rendering:auto;shape-rendering:auto;text-rendering:auto;enable-background:accumulate"
                           d="M 58.009766 40.279297 C 55.41958 40.27901 53.334665 42.362966 53.333984 44.953125 C 53.33372 47.543957 55.418937 49.629193 58.009766 49.628906 C 60.600594 49.629193 62.685849 47.543957 62.685547 44.953125 C 62.684904 42.362966 60.599914 40.27901 58.009766 40.279297 z M 57.787109 41.529297 L 59.189453 41.529297 L 59.189453 45.90625 L 60.28125 45.90625 L 60.28125 47.804688 L 56.099609 47.804688 L 56.099609 45.90625 L 57.191406 45.90625 L 57.191406 43.621094 L 56.003906 43.859375 L 56.003906 41.888672 L 57.720703 41.542969 L 57.787109 41.529297 z "
                           id="path4719"
                           transform="matrix(0.26458333,0,0,0.26458333,143.58877,81.421973)" />
                        <path
                           style="color:#000000;font-style:normal;font-variant:normal;font-weight:normal;font-stretch:normal;font-size:medium;line-height:normal;font-family:sans-serif;font-variant-ligatures:normal;font-variant-position:normal;font-variant-caps:normal;font-variant-numeric:normal;font-variant-alternates:normal;font-feature-settings:normal;text-indent:0;text-align:start;text-decoration:none;text-decoration-line:none;text-decoration-style:solid;text-decoration-color:#000000;letter-spacing:normal;word-spacing:normal;text-transform:none;writing-mode:lr-tb;direction:ltr;text-orientation:mixed;dominant-baseline:auto;baseline-shift:baseline;text-anchor:start;white-space:normal;shape-padding:0;clip-rule:nonzero;display:inline;overflow:visible;visibility:visible;opacity:1;isolation:auto;mix-blend-mode:normal;color-interpolation:sRGB;color-interpolation-filters:linearRGB;solid-color:#000000;solid-opacity:1;vector-effect:none;fill:#000000;fill-opacity:1;fill-rule:nonzero;stroke:none;stroke-width:1.3341732;stroke-linecap:round;stroke-linejoin:miter;stroke-miterlimit:4;stroke-dasharray:none;stroke-dashoffset:0.74834645;stroke-opacity:1;color-rendering:auto;image-rendering:auto;shape-rendering:auto;text-rendering:auto;enable-background:accumulate"
                           d="M 58.160156 53.824219 C 55.570008 53.82488 53.486064 55.909841 53.486328 58.5 C 53.486064 61.090156 55.570008 63.17512 58.160156 63.175781 C 60.750985 63.176065 62.83624 61.090832 62.835938 58.5 C 62.83624 55.909164 60.750985 53.823935 58.160156 53.824219 z M 58.003906 54.986328 L 58.007812 54.986328 C 58.629809 54.986328 59.215003 55.153133 59.660156 55.527344 C 60.104515 55.900731 60.355469 56.475948 60.355469 57.0625 C 60.355469 57.348149 60.299374 57.634576 60.1875 57.900391 L 60.1875 57.902344 C 60.072187 58.178922 59.899151 58.428353 59.675781 58.703125 L 59.667969 58.710938 L 59.660156 58.71875 C 59.56786 58.825835 59.407202 58.993645 59.109375 59.302734 L 59.107422 59.302734 L 59.107422 59.304688 C 59.073784 59.33961 59.002639 59.413112 58.964844 59.451172 L 60.378906 59.451172 L 60.378906 61.349609 L 55.90625 61.349609 L 55.90625 60.787109 L 55.90625 60.669922 L 55.90625 59.849609 L 56.09375 59.65625 C 56.35072 59.390341 56.697096 59.037787 57.134766 58.595703 C 57.571263 58.154799 57.857374 57.856598 57.9375 57.765625 L 57.939453 57.763672 C 58.131453 57.547861 58.247424 57.377518 58.287109 57.298828 L 58.289062 57.296875 L 58.289062 57.294922 C 58.336307 57.205876 58.34375 57.147988 58.34375 57.105469 C 58.34375 56.999188 58.346197 57.012138 58.291016 56.962891 L 58.289062 56.960938 L 58.287109 56.958984 C 58.235708 56.912345 58.188791 56.884766 58.017578 56.884766 C 57.885673 56.884766 57.730309 56.906991 57.550781 56.962891 C 57.371934 57.019092 57.166035 57.108568 56.933594 57.238281 L 55.939453 57.792969 L 55.939453 55.53125 L 56.359375 55.363281 C 56.652137 55.2457 56.933835 55.152823 57.208984 55.087891 C 57.484436 55.022996 57.748032 54.986328 58.003906 54.986328 z "
                           id="path4709"
                           transform="matrix(0.26458333,0,0,0.26458333,143.58877,81.421973)" />
                        <path
                           style="color:#000000;font-style:normal;font-variant:normal;font-weight:normal;font-stretch:normal;font-size:medium;line-height:normal;font-family:sans-serif;font-variant-ligatures:normal;font-variant-position:normal;font-variant-caps:normal;font-variant-numeric:normal;font-variant-alternates:normal;font-feature-settings:normal;text-indent:0;text-align:start;text-decoration:none;text-decoration-line:none;text-decoration-style:solid;text-decoration-color:#000000;letter-spacing:normal;word-spacing:normal;text-transform:none;writing-mode:lr-tb;direction:ltr;text-orientation:mixed;dominant-baseline:auto;baseline-shift:baseline;text-anchor:start;white-space:normal;shape-padding:0;clip-rule:nonzero;display:inline;overflow:visible;visibility:visible;opacity:1;isolation:auto;mix-blend-mode:normal;color-interpolation:sRGB;color-interpolation-filters:linearRGB;solid-color:#000000;solid-opacity:1;vector-effect:none;fill:#000000;fill-opacity:1;fill-rule:nonzero;stroke:none;stroke-width:1.3341732;stroke-linecap:round;stroke-linejoin:miter;stroke-miterlimit:4;stroke-dasharray:none;stroke-dashoffset:0.74834645;stroke-opacity:1;color-rendering:auto;image-rendering:auto;shape-rendering:auto;text-rendering:auto;enable-background:accumulate"
                           d="M 58.160156 67.220703 C 55.570651 67.221368 53.487008 69.305037 53.486328 71.894531 C 53.486064 74.484679 55.570008 76.56967 58.160156 76.570312 C 60.750985 76.570615 62.83624 74.48536 62.835938 71.894531 C 62.835295 69.30436 60.750304 67.22042 58.160156 67.220703 z M 58.082031 68.380859 C 58.689477 68.380859 59.254128 68.524939 59.695312 68.869141 C 60.136913 69.211898 60.398438 69.770031 60.398438 70.330078 C 60.398438 70.706292 60.261109 71.078938 60.033203 71.382812 C 60.047565 71.397931 60.072773 71.400898 60.087891 71.416016 C 60.370826 71.75519 60.513672 72.198899 60.513672 72.642578 C 60.513672 73.282112 60.249933 73.904723 59.759766 74.294922 C 59.268162 74.686065 58.627713 74.841797 57.914062 74.841797 C 57.664462 74.841797 57.410927 74.815956 57.154297 74.767578 C 56.899179 74.72109 56.637236 74.650814 56.373047 74.558594 L 55.925781 74.404297 L 55.925781 72.121094 L 56.929688 72.707031 C 57.059439 72.782622 57.203471 72.842372 57.365234 72.882812 C 57.529077 72.924387 57.704043 72.943359 57.894531 72.943359 C 58.225769 72.943359 58.392085 72.873984 58.447266 72.832031 L 58.447266 72.830078 L 58.449219 72.830078 C 58.510069 72.785858 58.513672 72.800562 58.513672 72.642578 C 58.513672 72.508783 58.511456 72.525886 58.457031 72.482422 L 58.455078 72.480469 L 58.451172 72.478516 C 58.39909 72.436185 58.286493 72.380859 58.023438 72.380859 L 56.779297 72.380859 L 56.779297 70.548828 L 56.076172 70.783203 L 56.076172 68.755859 L 56.564453 68.619141 C 56.836239 68.543512 57.097137 68.483763 57.349609 68.443359 L 57.351562 68.443359 C 57.604111 68.403523 57.846189 68.380859 58.082031 68.380859 z "
                           transform="matrix(0.26458333,0,0,0.26458333,143.58877,81.421973)"
                           id="path4701" />
                        <path
                           style="color:#000000;font-style:normal;font-variant:normal;font-weight:normal;font-stretch:normal;font-size:medium;line-height:normal;font-family:sans-serif;font-variant-ligatures:normal;font-variant-position:normal;font-variant-caps:normal;font-variant-numeric:normal;font-variant-alternates:normal;font-feature-settings:normal;text-indent:0;text-align:start;text-decoration:none;text-decoration-line:none;text-decoration-style:solid;text-decoration-color:#000000;letter-spacing:normal;word-spacing:normal;text-transform:none;writing-mode:lr-tb;direction:ltr;text-orientation:mixed;dominant-baseline:auto;baseline-shift:baseline;text-anchor:start;white-space:normal;shape-padding:0;clip-rule:nonzero;display:inline;overflow:visible;visibility:visible;opacity:1;isolation:auto;mix-blend-mode:normal;color-interpolation:sRGB;color-interpolation-filters:linearRGB;solid-color:#000000;solid-opacity:1;vector-effect:none;fill:#ffffff;fill-opacity:1;fill-rule:nonzero;stroke:none;stroke-width:0.35299999;stroke-linecap:round;stroke-linejoin:miter;stroke-miterlimit:4;stroke-dasharray:none;stroke-dashoffset:0.74834645;stroke-opacity:1;color-rendering:auto;image-rendering:auto;shape-rendering:auto;text-rendering:auto;enable-background:accumulate"
                           d="m 159.25036,99.752636 0.002,0.0016 c -4.5e-4,-3.46e-4 -0.001,-1.73e-4 -0.002,-5.17e-4 -3.1e-4,-2.37e-4 -2e-4,-7.97e-4 -5.1e-4,-0.001 z"
                           id="path4697" />
                        <path
                           style="color:#000000;font-style:normal;font-variant:normal;font-weight:normal;font-stretch:normal;font-size:medium;line-height:normal;font-family:sans-serif;font-variant-ligatures:normal;font-variant-position:normal;font-variant-caps:normal;font-variant-numeric:normal;font-variant-alternates:normal;font-feature-settings:normal;text-indent:0;text-align:start;text-decoration:none;text-decoration-line:none;text-decoration-style:solid;text-decoration-color:#000000;letter-spacing:normal;word-spacing:normal;text-transform:none;writing-mode:lr-tb;direction:ltr;text-orientation:mixed;dominant-baseline:auto;baseline-shift:baseline;text-anchor:start;white-space:normal;shape-padding:0;clip-rule:nonzero;display:inline;overflow:visible;visibility:visible;opacity:1;isolation:auto;mix-blend-mode:normal;color-interpolation:sRGB;color-interpolation-filters:linearRGB;solid-color:#000000;solid-opacity:1;vector-effect:none;fill:#000000;fill-opacity:1;fill-rule:nonzero;stroke:none;stroke-width:0.35299999;stroke-linecap:round;stroke-linejoin:miter;stroke-miterlimit:4;stroke-dasharray:none;stroke-dashoffset:0.74834645;stroke-opacity:1;color-rendering:auto;image-rendering:auto;shape-rendering:auto;text-rendering:auto;enable-background:accumulate"
                           d="m 158.94081,100.0167 c 0.0647,0 0.0919,0.0139 0.0966,0.0176 l 0.001,0.001 0.001,5.1e-4 c 0.005,0.004 5.1e-4,-0.0126 5.1e-4,0.0124 0,0.0225 0.003,0.009 5.2e-4,0.01 -0.004,0.003 -0.03,0.016 -0.0925,0.016 h -0.29456 l 0.005,-0.002 c 0.0609,-0.0203 0.11424,-0.0343 0.15968,-0.0429 0.0466,-0.009 0.088,-0.0129 0.12299,-0.0129 z"
                           id="rect5141" />
                        <g
                           style="fill:#ffffff;fill-opacity:0.99492385;stroke:none;stroke-opacity:1"
                           transform="matrix(0.67491103,-0.10982859,0.10982859,0.67491103,31.369364,69.098381)"
                           id="g5168" />
                        <path
                           style="color:#000000;font-style:normal;font-variant:normal;font-weight:normal;font-stretch:normal;font-size:medium;line-height:normal;font-family:sans-serif;font-variant-ligatures:normal;font-variant-position:normal;font-variant-caps:normal;font-variant-numeric:normal;font-variant-alternates:normal;font-feature-settings:normal;text-indent:0;text-align:start;text-decoration:none;text-decoration-line:none;text-decoration-style:solid;text-decoration-color:#000000;letter-spacing:normal;word-spacing:normal;text-transform:none;writing-mode:lr-tb;direction:ltr;text-orientation:mixed;dominant-baseline:auto;baseline-shift:baseline;text-anchor:start;white-space:normal;shape-padding:0;clip-rule:nonzero;display:inline;overflow:visible;visibility:visible;opacity:1;isolation:auto;mix-blend-mode:normal;color-interpolation:sRGB;color-interpolation-filters:linearRGB;solid-color:#000000;solid-opacity:1;vector-effect:none;fill:#000000;fill-opacity:1;fill-rule:nonzero;stroke:none;stroke-width:1.3341732;stroke-linecap:round;stroke-linejoin:miter;stroke-miterlimit:4;stroke-dasharray:none;stroke-dashoffset:0.74834645;stroke-opacity:1;color-rendering:auto;image-rendering:auto;shape-rendering:auto;text-rendering:auto;enable-background:accumulate"
                           d="M 9.6894531 8.4746094 C 7.4750279 8.4746132 5.414047 9.8961103 3.8652344 12.357422 C 2.3164217 14.818733 1.3320312 18.285966 1.3320312 22.144531 L 1.3320312 27.400391 C 1.3320312 31.258956 2.3164217 34.735954 3.8652344 37.197266 C 5.414047 39.658577 7.4750279 41.072266 9.6894531 41.072266 L 16.642578 41.072266 C 18.857003 41.072266 20.918022 39.658577 22.466797 37.197266 C 22.83691 36.609096 23.172842 35.959093 23.472656 35.263672 L 21.117188 35.263672 C 18.333792 35.263672 15.88235 33.481097 14.169922 30.759766 C 12.457493 28.03843 11.431641 24.339715 11.431641 20.255859 L 11.431641 15.007812 C 11.431641 12.663453 11.778576 10.453242 12.390625 8.4746094 L 9.6894531 8.4746094 z "
                           transform="matrix(0.26458333,0,0,0.26458333,143.58877,81.421973)"
                           id="rect5196" />
                        <path
                           style="color:#000000;font-style:normal;font-variant:normal;font-weight:normal;font-stretch:normal;font-size:medium;line-height:normal;font-family:sans-serif;font-variant-ligatures:normal;font-variant-position:normal;font-variant-caps:normal;font-variant-numeric:normal;font-variant-alternates:normal;font-feature-settings:normal;text-indent:0;text-align:start;text-decoration:none;text-decoration-line:none;text-decoration-style:solid;text-decoration-color:#000000;letter-spacing:normal;word-spacing:normal;text-transform:none;writing-mode:lr-tb;direction:ltr;text-orientation:mixed;dominant-baseline:auto;baseline-shift:baseline;text-anchor:start;white-space:normal;shape-padding:0;clip-rule:nonzero;display:inline;overflow:visible;visibility:visible;opacity:1;isolation:auto;mix-blend-mode:normal;color-interpolation:sRGB;color-interpolation-filters:linearRGB;solid-color:#000000;solid-opacity:1;vector-effect:none;fill:#000000;fill-opacity:1;fill-rule:nonzero;stroke:none;stroke-width:0.35299999;stroke-linecap:round;stroke-linejoin:miter;stroke-miterlimit:4;stroke-dasharray:none;stroke-dashoffset:0.74834645;stroke-opacity:1;color-rendering:auto;image-rendering:auto;shape-rendering:auto;text-rendering:auto;enable-background:accumulate"
                           d="m 149.17578,81.775391 h 1.8418 c 0.5859,0 1.12927,0.374168 1.53906,1.02539 0.40979,0.651222 0.66992,1.570885 0.66992,2.591797 v 1.388672 c 0,1.020912 -0.26013,1.940575 -0.66992,2.591797 -0.40979,0.651222 -0.95316,1.025391 -1.53906,1.025391 h -1.8418 c -0.5859,0 -1.12927,-0.374169 -1.53906,-1.025391 -0.40979,-0.651222 -0.67188,-1.570885 -0.67188,-2.591797 v -1.388672 c 0,-1.020912 0.26209,-1.940575 0.67188,-2.591797 0.40979,-0.651222 0.95316,-1.02539 1.53906,-1.02539 z"
                           id="rect5198" />
                      </g>
                    </g>
                  </g>
                </g>
              </g>
            </g>
          </g>
        </g>
      </g>
    </g>
  </g>
</svg>
