<?xml version="1.0" encoding="UTF-8" standalone="no"?>
<!-- Created with Inkscape (http://www.inkscape.org/) -->

<svg
   xmlns:dc="http://purl.org/dc/elements/1.1/"
   xmlns:cc="http://creativecommons.org/ns#"
   xmlns:rdf="http://www.w3.org/1999/02/22-rdf-syntax-ns#"
   xmlns:svg="http://www.w3.org/2000/svg"
   xmlns="http://www.w3.org/2000/svg"
   xmlns:sodipodi="http://sodipodi.sourceforge.net/DTD/sodipodi-0.dtd"
   xmlns:inkscape="http://www.inkscape.org/namespaces/inkscape"
   width="50.071228mm"
   height="23.845179mm"
   viewBox="0 0 50.071226 23.845178"
   version="1.1"
   id="svg4701"
   sodipodi:docname="airway.svg"
   inkscape:version="0.92.1 r15371"
   inkscape:export-filename="/home/juanar/Escritorio/Infografía SVB/iconos/96px/airway.png"
   inkscape:export-xdpi="96"
   inkscape:export-ydpi="96">
  <title
     id="title5410">Leónidas Life Support Icon Set</title>
  <defs
     id="defs4695" />
  <sodipodi:namedview
     id="base"
     pagecolor="#ffffff"
     bordercolor="#666666"
     borderopacity="1.0"
     inkscape:pageopacity="0.0"
     inkscape:pageshadow="2"
     inkscape:zoom="11.2"
     inkscape:cx="120.53921"
     inkscape:cy="28.601573"
     inkscape:document-units="mm"
     inkscape:current-layer="g5729"
     showgrid="false"
     fit-margin-top="0"
     fit-margin-left="0"
     fit-margin-right="0"
     fit-margin-bottom="0"
     inkscape:window-width="1362"
     inkscape:window-height="704"
     inkscape:window-x="0"
     inkscape:window-y="0"
     inkscape:window-maximized="1" />
  <metadata
     id="metadata4698">
    <rdf:RDF>
      <cc:Work
         rdf:about="">
        <dc:format>image/svg+xml</dc:format>
        <dc:type
           rdf:resource="http://purl.org/dc/dcmitype/StillImage" />
        <dc:title>Leónidas Life Support Icon Set</dc:title>
        <cc:license
           rdf:resource="http://creativecommons.org/licenses/by-nc-sa/4.0/" />
        <dc:creator>
          <cc:Agent>
            <dc:title>Arbotti Juan Manuel</dc:title>
          </cc:Agent>
        </dc:creator>
        <dc:rights>
          <cc:Agent>
            <dc:title>Creative Commons</dc:title>
          </cc:Agent>
        </dc:rights>
        <dc:description>This is an icon set to use in any project realted to basic or advanced life support. Please, don't forge to mention the author in bilbiography.</dc:description>
        <dc:subject>
          <rdf:Bag>
            <rdf:li>life support</rdf:li>
            <rdf:li>medical</rdf:li>
            <rdf:li>cpr</rdf:li>
          </rdf:Bag>
        </dc:subject>
      </cc:Work>
      <cc:License
         rdf:about="http://creativecommons.org/licenses/by-nc-sa/4.0/">
        <cc:permits
           rdf:resource="http://creativecommons.org/ns#Reproduction" />
        <cc:permits
           rdf:resource="http://creativecommons.org/ns#Distribution" />
        <cc:requires
           rdf:resource="http://creativecommons.org/ns#Notice" />
        <cc:requires
           rdf:resource="http://creativecommons.org/ns#Attribution" />
        <cc:prohibits
           rdf:resource="http://creativecommons.org/ns#CommercialUse" />
        <cc:permits
           rdf:resource="http://creativecommons.org/ns#DerivativeWorks" />
        <cc:requires
           rdf:resource="http://creativecommons.org/ns#ShareAlike" />
      </cc:License>
    </rdf:RDF>
  </metadata>
  <g
     inkscape:label="Capa 1"
     inkscape:groupmode="layer"
     id="layer1"
     transform="translate(-6.4834609,-46.098081)">
    <g
       id="g4705"
       transform="matrix(0.33971987,0,0,0.33971987,11.36357,20.277033)">
      <g
         id="g5408"
         transform="translate(-8.6227382,-5.4902534)">
        <g
           id="g5338"
           transform="translate(8.6228501,2.0793992)">
          <g
             id="g4499"
             transform="matrix(1.1925956,0,0,1.1925956,6.1084013,50.242724)">
            <g
               id="g5076"
               transform="matrix(2.4682313,0,0,2.4682313,-5.1381439,-147.81317)">
              <g
                 id="g5045"
                 transform="matrix(0.33971987,0,0,0.33971987,7.4660027,55.100765)">
                <g
                   id="g5575"
                   transform="matrix(2.9436017,0,0,2.9436017,-199.87727,-131.70809)">
                  <g
                     transform="matrix(0.40514841,0,0,0.40514841,59.182814,49.131208)"
                     id="g4954">
                    <g
                       id="g5729"
                       transform="translate(-4.722115e-7,-7.4634618)">
                      <path
                         style="opacity:1;fill:#000000;fill-opacity:1;stroke:none;stroke-width:1.30041456;stroke-linecap:round;stroke-linejoin:miter;stroke-miterlimit:4;stroke-dasharray:none;stroke-dashoffset:0.74834645;stroke-opacity:1"
                         d="M 165.91406 18.539062 C 165.97428 19.177807 166.00781 19.824195 166.00781 20.478516 C 166.00781 31.775952 156.82673 40.958984 145.5293 40.958984 C 134.23186 40.958984 125.04883 31.775952 125.04883 20.478516 C 125.04883 20.287903 125.05926 20.099529 125.06445 19.910156 C 124.31039 20.276726 123.64979 20.799076 123.15039 21.484375 L 108.18555 42.017578 C 110.84108 39.755556 114.60725 39.410273 117.10742 41.519531 L 122.39648 45.980469 L 126.64062 40.15625 L 126.64062 49.5625 L 136.21484 57.640625 C 139.35873 55.084747 143.36314 53.546875 147.72461 53.546875 C 151.14582 53.546875 154.33788 54.508098 157.07812 56.148438 L 167.95898 47.021484 L 167.95898 40.171875 L 171.25977 44.253906 L 176.90625 39.517578 C 179.48824 37.352149 183.4131 37.738558 186.14258 40.146484 L 170.35352 20.617188 C 169.33759 19.360579 167.70605 18.659274 165.91406 18.539062 z M 122.07227 65.716797 L 122.06055 75.949219 L 127.64648 75.953125 C 128.48586 75.953589 129.28874 76.09494 130.03711 76.34375 C 129.67172 74.913556 129.45658 73.424335 129.45117 71.882812 C 129.25316 71.75327 129.06007 71.613169 128.875 71.457031 L 122.07227 65.716797 z M 169.17773 66.371094 L 165.79492 69.207031 C 165.91856 70.064184 166.00391 70.933211 166.00391 71.824219 C 166.00391 79.401286 161.37609 85.910885 154.79688 88.679688 C 155.95498 88.930649 157.22375 89.076614 158.55859 89.087891 L 159.31641 89.09375 C 164.76455 89.139775 169.15303 86.963962 169.15625 84.214844 L 169.17773 66.371094 z M 134.62109 84.541016 C 134.17053 86.625478 132.74171 88.369411 130.81055 89.326172 C 131.1612 89.348077 131.51794 89.362185 131.87891 89.365234 L 132.63477 89.373047 C 135.25871 89.395214 137.62983 88.898635 139.39062 88.074219 C 137.61128 87.158109 136.00218 85.964293 134.62109 84.541016 z "
                         transform="matrix(0.65305287,0,0,0.65305287,-8.9352863,32.909657)"
                         id="rect4583-9" />
                      <path
                         style="opacity:1;fill:#000000;fill-opacity:1;stroke:#000000;stroke-width:1.0246954;stroke-linecap:round;stroke-linejoin:miter;stroke-miterlimit:4;stroke-dasharray:none;stroke-dashoffset:0.74834645;stroke-opacity:1"
                         d="M 59.841797 64.197266 C 54.127646 64.197266 49.247642 67.123878 47.140625 71.318359 L 12.849609 71.318359 C 5.9574203 71.318359 0.41015625 75.039656 0.41015625 79.664062 L 0.41015625 80.306641 C 0.41015625 84.93105 5.9574203 88.654297 12.849609 88.654297 L 75.054688 88.654297 C 75.329105 88.654297 75.597292 88.638579 75.867188 88.626953 L 90.363281 88.626953 C 88.705159 87.375741 87.652217 85.442961 87.691406 83.251953 L 87.699219 82.78125 C 87.767365 78.971606 91.102624 75.933403 95.089844 75.935547 L 127.64648 75.953125 C 128.48586 75.953589 129.28874 76.09494 130.03711 76.34375 C 129.67172 74.913556 129.45658 73.424335 129.45117 71.882812 C 129.25316 71.753268 129.06007 71.613169 128.875 71.457031 L 120.26953 64.197266 L 59.841797 64.197266 z M 134.62891 84.548828 C 134.31595 85.98639 133.53493 87.260877 132.44336 88.226562 C 134.04614 87.868327 135.52799 87.266409 136.8457 86.480469 C 136.05703 85.893429 135.3127 85.252673 134.62891 84.548828 z "
                         transform="matrix(0.65305287,0,0,0.65305287,-8.9352863,32.909657)"
                         id="rect4940" />
                      <path
                         style="color:#000000;font-style:normal;font-variant:normal;font-weight:normal;font-stretch:normal;font-size:medium;line-height:normal;font-family:sans-serif;font-variant-ligatures:normal;font-variant-position:normal;font-variant-caps:normal;font-variant-numeric:normal;font-variant-alternates:normal;font-feature-settings:normal;text-indent:0;text-align:start;text-decoration:none;text-decoration-line:none;text-decoration-style:solid;text-decoration-color:#000000;letter-spacing:normal;word-spacing:normal;text-transform:none;writing-mode:lr-tb;direction:ltr;text-orientation:mixed;dominant-baseline:auto;baseline-shift:baseline;text-anchor:start;white-space:normal;shape-padding:0;clip-rule:nonzero;display:inline;overflow:visible;visibility:visible;opacity:1;isolation:auto;mix-blend-mode:normal;color-interpolation:sRGB;color-interpolation-filters:linearRGB;solid-color:#000000;solid-opacity:1;vector-effect:none;fill:#000000;fill-opacity:1;fill-rule:nonzero;stroke:none;stroke-width:0.98729253;stroke-linecap:round;stroke-linejoin:miter;stroke-miterlimit:4;stroke-dasharray:none;stroke-dashoffset:0.74834645;stroke-opacity:1;color-rendering:auto;image-rendering:auto;shape-rendering:auto;text-rendering:auto;enable-background:accumulate"
                         d="m 53.145782,83.487566 21.261716,0.01176 c 2.107818,0.0012 3.73179,1.56597 3.697411,3.487849 l -0.0055,0.306592 c -0.03438,1.921879 -1.7143,3.484857 -3.822118,3.483691 l -21.261715,-0.01176 c -2.107819,-0.0012 -3.729838,-1.56597 -3.69546,-3.487849 l 0.0055,-0.306591 c 0.03438,-1.921879 1.712346,-3.484858 3.820165,-3.483693 z"
                         id="rect4944" />
                      <path
                         style="color:#000000;font-style:normal;font-variant:normal;font-weight:normal;font-stretch:normal;font-size:medium;line-height:normal;font-family:sans-serif;font-variant-ligatures:normal;font-variant-position:normal;font-variant-caps:normal;font-variant-numeric:normal;font-variant-alternates:normal;font-feature-settings:normal;text-indent:0;text-align:start;text-decoration:none;text-decoration-line:none;text-decoration-style:solid;text-decoration-color:#000000;letter-spacing:normal;word-spacing:normal;text-transform:none;writing-mode:lr-tb;direction:ltr;text-orientation:mixed;dominant-baseline:auto;baseline-shift:baseline;text-anchor:start;white-space:normal;shape-padding:0;clip-rule:nonzero;display:inline;overflow:visible;visibility:visible;opacity:1;isolation:auto;mix-blend-mode:normal;color-interpolation:sRGB;color-interpolation-filters:linearRGB;solid-color:#000000;solid-opacity:1;vector-effect:none;fill:#000000;fill-opacity:1;fill-rule:nonzero;stroke:none;stroke-width:1.93399346;stroke-linecap:round;stroke-linejoin:miter;stroke-miterlimit:4;stroke-dasharray:none;stroke-dashoffset:0.74834645;stroke-opacity:1;color-rendering:auto;image-rendering:auto;shape-rendering:auto;text-rendering:auto;enable-background:accumulate"
                         d="M 147.72461 55.478516 C 143.94909 55.478516 140.48744 56.768523 137.72266 58.912109 L 138.89844 59.904297 C 141.69779 62.265948 141.67007 66.654071 139.0332 69.693359 L 138.70117 70.074219 C 136.77608 72.293103 133.9185 73.259662 131.42578 72.705078 C 131.8853 81.329415 138.98413 88.167969 147.72461 88.167969 C 156.76272 88.167969 164.07031 80.862329 164.07031 71.824219 C 164.07031 71.437319 164.04002 71.057854 164.01367 70.677734 C 161.16118 72.80513 156.87314 72.056675 154.24805 69.048828 L 153.90039 68.650391 C 151.19136 65.546368 151.176 61.097345 154.02148 58.710938 L 155.52344 57.451172 C 153.20666 56.193309 150.54998 55.478516 147.72461 55.478516 z "
                         transform="matrix(0.65305287,0,0,0.65305287,-8.9352863,32.909657)"
                         id="circle4952" />
                      <path
                         style="color:#000000;font-style:normal;font-variant:normal;font-weight:normal;font-stretch:normal;font-size:medium;line-height:normal;font-family:sans-serif;font-variant-ligatures:normal;font-variant-position:normal;font-variant-caps:normal;font-variant-numeric:normal;font-variant-alternates:normal;font-feature-settings:normal;text-indent:0;text-align:start;text-decoration:none;text-decoration-line:none;text-decoration-style:solid;text-decoration-color:#000000;letter-spacing:normal;word-spacing:normal;text-transform:none;writing-mode:lr-tb;direction:ltr;text-orientation:mixed;dominant-baseline:auto;baseline-shift:baseline;text-anchor:start;white-space:normal;shape-padding:0;clip-rule:nonzero;display:inline;overflow:visible;visibility:visible;opacity:1;isolation:auto;mix-blend-mode:normal;color-interpolation:sRGB;color-interpolation-filters:linearRGB;solid-color:#000000;solid-opacity:1;vector-effect:none;fill:#000000;fill-opacity:1;fill-rule:nonzero;stroke:none;stroke-width:0.85287678;stroke-linecap:round;stroke-linejoin:miter;stroke-miterlimit:4;stroke-dasharray:none;stroke-dashoffset:0.74834645;stroke-opacity:1;color-rendering:auto;image-rendering:auto;shape-rendering:auto;text-rendering:auto;enable-background:accumulate"
                         d="M 107.15401,59.358469 92.208446,71.892766 c -1.453833,1.219276 -1.494157,3.574165 0.01391,5.302119 l 0.227312,0.260456 c 1.508068,1.727955 3.887634,2.053384 5.341467,0.834108 L 112.7367,65.755153 c 1.45384,-1.219276 1.49266,-3.572918 -0.0154,-5.300872 l -0.22731,-0.260456 c -1.50807,-1.727955 -3.88614,-2.054632 -5.33997,-0.835356 z"
                         id="rect4944-4-7" />
                      <path
                         style="color:#000000;font-style:normal;font-variant:normal;font-weight:normal;font-stretch:normal;font-size:medium;line-height:normal;font-family:sans-serif;font-variant-ligatures:normal;font-variant-position:normal;font-variant-caps:normal;font-variant-numeric:normal;font-variant-alternates:normal;font-feature-settings:normal;text-indent:0;text-align:start;text-decoration:none;text-decoration-line:none;text-decoration-style:solid;text-decoration-color:#000000;letter-spacing:normal;word-spacing:normal;text-transform:none;writing-mode:lr-tb;direction:ltr;text-orientation:mixed;dominant-baseline:auto;baseline-shift:baseline;text-anchor:start;white-space:normal;shape-padding:0;clip-rule:nonzero;display:inline;overflow:visible;visibility:visible;opacity:1;isolation:auto;mix-blend-mode:normal;color-interpolation:sRGB;color-interpolation-filters:linearRGB;solid-color:#000000;solid-opacity:1;vector-effect:none;fill:#000000;fill-opacity:1;fill-rule:nonzero;stroke:none;stroke-width:1.06133938;stroke-linecap:round;stroke-linejoin:miter;stroke-miterlimit:4;stroke-dasharray:none;stroke-dashoffset:0.74834645;stroke-opacity:1;color-rendering:auto;image-rendering:auto;shape-rendering:auto;text-rendering:auto;enable-background:accumulate"
                         d="M 66.845288,60.826739 81.07648,72.832805 c 1.325641,1.118369 1.370311,3.292995 -0.02823,4.904964 l -0.21631,0.249322 c -1.398536,1.61197 -3.582874,1.90355 -4.908515,0.785181 L 61.692238,66.766206 c -1.325646,-1.118373 -1.371591,-3.291519 0.02694,-4.903488 l 0.216311,-0.249322 c 1.398536,-1.61197 3.584148,-1.90503 4.909794,-0.786657 z"
                         id="rect4944-4" />
                      <path
                         style="color:#000000;font-style:normal;font-variant:normal;font-weight:normal;font-stretch:normal;font-size:medium;line-height:normal;font-family:sans-serif;font-variant-ligatures:normal;font-variant-position:normal;font-variant-caps:normal;font-variant-numeric:normal;font-variant-alternates:normal;font-feature-settings:normal;text-indent:0;text-align:start;text-decoration:none;text-decoration-line:none;text-decoration-style:solid;text-decoration-color:#000000;letter-spacing:normal;word-spacing:normal;text-transform:none;writing-mode:lr-tb;direction:ltr;text-orientation:mixed;dominant-baseline:auto;baseline-shift:baseline;text-anchor:start;white-space:normal;shape-padding:0;clip-rule:nonzero;display:inline;overflow:visible;visibility:visible;opacity:1;isolation:auto;mix-blend-mode:normal;color-interpolation:sRGB;color-interpolation-filters:linearRGB;solid-color:#000000;solid-opacity:1;vector-effect:none;fill:#000000;fill-opacity:1;fill-rule:nonzero;stroke:none;stroke-width:1.4150759;stroke-linecap:round;stroke-linejoin:miter;stroke-miterlimit:4;stroke-dasharray:none;stroke-dashoffset:0.74834645;stroke-opacity:1;color-rendering:auto;image-rendering:auto;shape-rendering:auto;text-rendering:auto;enable-background:accumulate"
                         d="m 86.103516,34.324219 c 6.613058,0 11.958984,5.345925 11.958984,11.958984 0,6.613059 -5.345926,11.958984 -11.958984,11.958985 -6.613059,0 -11.958985,-5.345926 -11.958985,-11.958985 0,-6.613059 5.345926,-11.958984 11.958985,-11.958984 z"
                         id="circle4950" />
                    </g>
                  </g>
                </g>
              </g>
            </g>
          </g>
        </g>
      </g>
    </g>
  </g>
</svg>
