<?xml version="1.0" encoding="UTF-8" standalone="no"?>
<!-- Created with Inkscape (http://www.inkscape.org/) -->

<svg
   xmlns:dc="http://purl.org/dc/elements/1.1/"
   xmlns:cc="http://creativecommons.org/ns#"
   xmlns:rdf="http://www.w3.org/1999/02/22-rdf-syntax-ns#"
   xmlns:svg="http://www.w3.org/2000/svg"
   xmlns="http://www.w3.org/2000/svg"
   xmlns:sodipodi="http://sodipodi.sourceforge.net/DTD/sodipodi-0.dtd"
   xmlns:inkscape="http://www.inkscape.org/namespaces/inkscape"
   width="29.29003mm"
   height="41.632965mm"
   viewBox="0 0 29.290029 41.632965"
   version="1.1"
   id="svg4701"
   sodipodi:docname="attack.svg"
   inkscape:version="0.92.1 r15371"
   inkscape:export-filename="/home/juanar/Escritorio/Infografía SVB/iconos/attack.png"
   inkscape:export-xdpi="96"
   inkscape:export-ydpi="96">
  <title
     id="title5410">Leónidas Life Support Icon Set</title>
  <defs
     id="defs4695" />
  <sodipodi:namedview
     id="base"
     pagecolor="#ffffff"
     bordercolor="#666666"
     borderopacity="1.0"
     inkscape:pageopacity="0.0"
     inkscape:pageshadow="2"
     inkscape:zoom="5.6"
     inkscape:cx="44.367944"
     inkscape:cy="145.66567"
     inkscape:document-units="mm"
     inkscape:current-layer="g4693"
     showgrid="false"
     fit-margin-top="0"
     fit-margin-left="0"
     fit-margin-right="0"
     fit-margin-bottom="0"
     inkscape:window-width="1362"
     inkscape:window-height="704"
     inkscape:window-x="0"
     inkscape:window-y="0"
     inkscape:window-maximized="1" />
  <metadata
     id="metadata4698">
    <rdf:RDF>
      <cc:Work
         rdf:about="">
        <dc:format>image/svg+xml</dc:format>
        <dc:type
           rdf:resource="http://purl.org/dc/dcmitype/StillImage" />
        <dc:title>Leónidas Life Support Icon Set</dc:title>
        <cc:license
           rdf:resource="http://creativecommons.org/licenses/by-nc-sa/4.0/" />
        <dc:creator>
          <cc:Agent>
            <dc:title>Arbotti Juan Manuel</dc:title>
          </cc:Agent>
        </dc:creator>
        <dc:rights>
          <cc:Agent>
            <dc:title>Creative Commons</dc:title>
          </cc:Agent>
        </dc:rights>
        <dc:description>This is an icon set to use in any project realted to basic or advanced life support. Please, don't forge to mention the author in bilbiography.</dc:description>
        <dc:subject>
          <rdf:Bag>
            <rdf:li>life support</rdf:li>
            <rdf:li>medical</rdf:li>
            <rdf:li>cpr</rdf:li>
          </rdf:Bag>
        </dc:subject>
      </cc:Work>
      <cc:License
         rdf:about="http://creativecommons.org/licenses/by-nc-sa/4.0/">
        <cc:permits
           rdf:resource="http://creativecommons.org/ns#Reproduction" />
        <cc:permits
           rdf:resource="http://creativecommons.org/ns#Distribution" />
        <cc:requires
           rdf:resource="http://creativecommons.org/ns#Notice" />
        <cc:requires
           rdf:resource="http://creativecommons.org/ns#Attribution" />
        <cc:prohibits
           rdf:resource="http://creativecommons.org/ns#CommercialUse" />
        <cc:permits
           rdf:resource="http://creativecommons.org/ns#DerivativeWorks" />
        <cc:requires
           rdf:resource="http://creativecommons.org/ns#ShareAlike" />
      </cc:License>
    </rdf:RDF>
  </metadata>
  <g
     inkscape:label="Capa 1"
     inkscape:groupmode="layer"
     id="layer1"
     transform="translate(-11.057361,-18.403753)">
    <g
       id="g4705"
       transform="matrix(0.33971987,0,0,0.33971987,11.36357,20.277033)">
      <g
         id="g5408"
         transform="translate(-8.6227382,-5.4902534)">
        <g
           id="g5338"
           transform="translate(8.6228501,2.0793992)">
          <g
             id="g4693"
             transform="matrix(1.0432188,0,0,1.0432188,-109.73043,-6.0520398)">
            <path
               style="opacity:1;fill:#000000;fill-opacity:1;stroke:none;stroke-width:1.68242443;stroke-linecap:round;stroke-linejoin:miter;stroke-miterlimit:4;stroke-dasharray:none;stroke-dashoffset:0.74834645;stroke-opacity:1"
               d="M 71.134766 29.697266 A 16.966251 16.966251 0 0 1 57.166016 37.041016 A 16.966251 16.966251 0 0 1 43.376953 29.925781 C 42.356892 30.26155 41.404322 30.744835 40.552734 31.367188 L 27.035156 37.150391 C 27.38727 37.193352 27.742891 37.261449 28.101562 37.371094 L 51.316406 44.466797 C 51.752224 44.600025 52.168898 44.778577 52.564453 44.994141 C 51.825556 41.326258 54.034551 38.08929 57.642578 37.742188 L 81.804688 35.417969 C 81.80859 35.417593 81.812503 35.418337 81.816406 35.417969 L 75.441406 31.933594 C 74.223441 30.866935 72.753715 30.092673 71.134766 29.697266 z M 79 49.660156 L 60.826172 51.408203 C 59.299536 51.55507 57.780453 51.154418 56.457031 50.375 C 56.663609 51.337754 56.705122 52.342105 56.541016 53.335938 C 55.912281 57.14358 52.565398 59.391525 49.029297 58.310547 L 36.285156 54.414062 L 36.285156 85.416016 C 36.285156 88.253594 37.395163 90.81597 39.197266 92.691406 C 38.916479 93.878534 38.761719 95.144161 38.761719 96.462891 L 38.761719 143.04102 C 38.761719 149.77263 42.712623 155.19141 47.621094 155.19141 C 52.529565 155.19141 56.480469 149.77263 56.480469 143.04102 L 56.480469 96.462891 C 56.480469 96.251199 56.464754 96.044906 56.457031 95.835938 L 58.630859 95.835938 C 58.623137 96.044906 58.607422 96.251199 58.607422 96.462891 L 58.607422 143.04102 C 58.607422 149.77263 62.558326 155.19141 67.466797 155.19141 C 72.375254 155.19141 76.328125 149.77263 76.328125 143.04102 L 76.328125 96.462891 C 76.328125 95.204245 76.188359 93.99161 75.931641 92.851562 C 77.8261 90.963418 79 88.334992 79 85.416016 L 79 49.660156 z "
               transform="matrix(0.74656243,0,0,0.74656243,104.32036,3.7851156)"
               id="rect4583" />
            <path
               style="color:#000000;font-style:normal;font-variant:normal;font-weight:normal;font-stretch:normal;font-size:medium;line-height:normal;font-family:sans-serif;font-variant-ligatures:normal;font-variant-position:normal;font-variant-caps:normal;font-variant-numeric:normal;font-variant-alternates:normal;font-feature-settings:normal;text-indent:0;text-align:start;text-decoration:none;text-decoration-line:none;text-decoration-style:solid;text-decoration-color:#000000;letter-spacing:normal;word-spacing:normal;text-transform:none;writing-mode:lr-tb;direction:ltr;text-orientation:mixed;dominant-baseline:auto;baseline-shift:baseline;text-anchor:start;white-space:normal;shape-padding:0;clip-rule:nonzero;display:inline;overflow:visible;visibility:visible;opacity:1;isolation:auto;mix-blend-mode:normal;color-interpolation:sRGB;color-interpolation-filters:linearRGB;solid-color:#000000;solid-opacity:1;vector-effect:none;fill:#000000;fill-opacity:1;fill-rule:nonzero;stroke:none;stroke-width:0.87801558;stroke-linecap:round;stroke-linejoin:miter;stroke-miterlimit:4;stroke-dasharray:none;stroke-dashoffset:0.74834645;stroke-opacity:1;color-rendering:auto;image-rendering:auto;shape-rendering:auto;text-rendering:auto;enable-background:accumulate"
               d="m 125.15614,32.55343 17.33131,5.298142 c 2.16063,0.660502 3.59596,3.092678 3.1994,5.49427 -0.39657,2.401591 -2.45826,3.762714 -4.61889,3.102212 l -17.33131,-5.298141 c -2.16064,-0.660502 -3.59816,-3.091325 -3.2016,-5.492916 0.39657,-2.401592 2.46045,-3.764068 4.62109,-3.103567 z"
               id="rect4591-7" />
            <path
               style="color:#000000;font-style:normal;font-variant:normal;font-weight:normal;font-stretch:normal;font-size:medium;line-height:normal;font-family:sans-serif;font-variant-ligatures:normal;font-variant-position:normal;font-variant-caps:normal;font-variant-numeric:normal;font-variant-alternates:normal;font-feature-settings:normal;text-indent:0;text-align:start;text-decoration:none;text-decoration-line:none;text-decoration-style:solid;text-decoration-color:#000000;letter-spacing:normal;word-spacing:normal;text-transform:none;writing-mode:lr-tb;direction:ltr;text-orientation:mixed;dominant-baseline:auto;baseline-shift:baseline;text-anchor:start;white-space:normal;shape-padding:0;clip-rule:nonzero;display:inline;overflow:visible;visibility:visible;opacity:1;isolation:auto;mix-blend-mode:normal;color-interpolation:sRGB;color-interpolation-filters:linearRGB;solid-color:#000000;solid-opacity:1;vector-effect:none;fill:#000000;fill-opacity:1;fill-rule:nonzero;stroke:none;stroke-width:0.87801558;stroke-linecap:round;stroke-linejoin:miter;stroke-miterlimit:4;stroke-dasharray:none;stroke-dashoffset:0.74834645;stroke-opacity:1;color-rendering:auto;image-rendering:auto;shape-rendering:auto;text-rendering:auto;enable-background:accumulate"
               d="m 147.55437,32.820521 18.03782,-1.735293 c 2.24896,-0.216356 4.50752,1.48148 5.05992,3.852083 0.5524,2.370603 -0.83365,4.417118 -3.08261,4.633475 l -18.03782,1.735293 c -2.24895,0.216357 -4.50708,-1.479579 -5.05948,-3.850181 -0.5524,-2.370604 0.83321,-4.419021 3.08217,-4.635377 z"
               id="rect4591-7-8" />
            <path
               style="opacity:1;fill:#000000;fill-opacity:1;stroke:none;stroke-width:1.32524872;stroke-linecap:round;stroke-linejoin:miter;stroke-miterlimit:4;stroke-dasharray:none;stroke-dashoffset:0.74834645;stroke-opacity:1"
               d="M 147.02818,6.8803735 A 11.850651,11.850646 0 0 0 135.17796,18.730599 11.850651,11.850646 0 0 0 147.02818,30.582258 11.850651,11.850646 0 0 0 158.87985,18.730599 11.850651,11.850646 0 0 0 147.02818,6.8803735 Z m 4.35918,6.5602255 c 0.50739,-3e-6 1.26592,1.357139 1.26592,1.864532 0,0.507394 0.15941,0.300735 -0.34798,0.300731 -0.50739,-2e-6 -2.42733,-0.542304 -2.42733,-1.049694 0,-0.50739 1.002,-1.115567 1.50939,-1.115569 z m -8.71691,0.118861 c 0.50739,2e-6 1.50939,0.608177 1.50939,1.115567 0,0.50739 -1.92137,1.049693 -2.42876,1.049695 -0.50739,4e-6 -0.348,0.206663 -0.348,-0.300732 0,-0.507392 0.75998,-1.864534 1.26737,-1.86453 z m 3.84935,7.778905 c 2.40437,0 4.64129,1.63483 4.64129,2.335676 0,0.700846 -2.09228,-0.446801 -4.49664,-0.4468 -2.40437,0 -4.54533,1.286555 -4.54533,0.58571 0,-0.700848 1.99632,-2.474588 4.40068,-2.474586 z"
               id="circle4537"
               inkscape:connector-curvature="0" />
            <g
               id="g4542"
               transform="translate(-0.34664055,-6.1564694)" />
          </g>
        </g>
      </g>
    </g>
  </g>
</svg>
