<?xml version="1.0" encoding="UTF-8" standalone="no"?>
<!-- Created with Inkscape (http://www.inkscape.org/) -->

<svg
   xmlns:dc="http://purl.org/dc/elements/1.1/"
   xmlns:cc="http://creativecommons.org/ns#"
   xmlns:rdf="http://www.w3.org/1999/02/22-rdf-syntax-ns#"
   xmlns:svg="http://www.w3.org/2000/svg"
   xmlns="http://www.w3.org/2000/svg"
   xmlns:sodipodi="http://sodipodi.sourceforge.net/DTD/sodipodi-0.dtd"
   xmlns:inkscape="http://www.inkscape.org/namespaces/inkscape"
   width="29.29003mm"
   height="41.632965mm"
   viewBox="0 0 29.290029 41.632965"
   version="1.1"
   id="svg4701"
   sodipodi:docname="call.svg"
   inkscape:version="0.92.1 r15371"
   inkscape:export-filename="/home/juanar/Escritorio/Infografía SVB/iconos/call.png"
   inkscape:export-xdpi="96"
   inkscape:export-ydpi="96">
  <title
     id="title5410">Leónidas Life Support Icon Set</title>
  <defs
     id="defs4695" />
  <sodipodi:namedview
     id="base"
     pagecolor="#ffffff"
     bordercolor="#666666"
     borderopacity="1.0"
     inkscape:pageopacity="0.0"
     inkscape:pageshadow="2"
     inkscape:zoom="5.8369231"
     inkscape:cx="-20.294005"
     inkscape:cy="83.688122"
     inkscape:document-units="mm"
     inkscape:current-layer="g4854"
     showgrid="false"
     fit-margin-top="0"
     fit-margin-left="0"
     fit-margin-right="0"
     fit-margin-bottom="0"
     inkscape:window-width="1362"
     inkscape:window-height="704"
     inkscape:window-x="0"
     inkscape:window-y="0"
     inkscape:window-maximized="1"
     showguides="false" />
  <metadata
     id="metadata4698">
    <rdf:RDF>
      <cc:Work
         rdf:about="">
        <dc:format>image/svg+xml</dc:format>
        <dc:type
           rdf:resource="http://purl.org/dc/dcmitype/StillImage" />
        <dc:title>Leónidas Life Support Icon Set</dc:title>
        <cc:license
           rdf:resource="https://www.gnu.org/licenses/gpl-3.0.en.html" />
        <dc:creator>
          <cc:Agent>
            <dc:title>Arbotti Juan Manuel</dc:title>
          </cc:Agent>
        </dc:creator>
        <dc:rights>
          <cc:Agent>
            <dc:title>GNU GPL V3</dc:title>
          </cc:Agent>
        </dc:rights>
        <dc:description>This is an icon set to use in any project realted to basic or advanced life support. Please, don't forge to mention the author in bilbiography.</dc:description>
        <dc:subject>
          <rdf:Bag>
            <rdf:li>life support</rdf:li>
            <rdf:li>medical</rdf:li>
            <rdf:li>cpr</rdf:li>
          </rdf:Bag>
        </dc:subject>
      </cc:Work>
    </rdf:RDF>
  </metadata>
  <g
     inkscape:label="Capa 1"
     inkscape:groupmode="layer"
     id="layer1"
     transform="translate(-11.057361,-18.403753)">
    <g
       id="g4705"
       transform="matrix(0.33971987,0,0,0.33971987,11.36357,20.277033)">
      <g
         id="g4727"
         transform="matrix(1.0004731,0,0,1.0004731,7.8037641,-5.6500751)">
        <g
           id="g4854"
           transform="translate(0.09829538,0.09829538)">
          <g
             style="fill:none;fill-opacity:1;stroke:#ffffff;stroke-opacity:1"
             transform="matrix(0.86414141,0.31421093,-0.31421093,0.86414141,67.796539,-1.1903136)"
             id="g4798" />
          <g
             id="g5541">
            <path
               id="rect4707"
               transform="matrix(0.77845967,0,0,0.77845967,-8.7993004,0.0375252)"
               d="M 79.902344 25.212891 L 76.232422 35.314453 L 71.693359 33.666016 L 73.609375 37.677734 L 69.802734 35.224609 C 68.57394 34.432651 67.213264 34.157276 65.947266 34.335938 C 65.931286 34.331979 65.914444 34.33006 65.898438 34.326172 A 16.271063 16.271063 0 0 1 52.503906 41.367188 A 16.271063 16.271063 0 0 1 39.234375 34.478516 C 36.110504 33.368583 32.398822 34.598274 30.287109 37.685547 L 12.367188 63.884766 C 12.178046 64.161286 12.013765 64.446247 11.861328 64.734375 C 11.666252 64.98285 11.477268 65.242451 11.306641 65.521484 C 9.4117354 68.620287 9.8843538 72.351652 12.365234 73.888672 L 30.277344 84.986328 C 30.95189 85.40424 31.703587 85.608911 32.478516 85.632812 L 32.478516 87.759766 C 32.478516 90.481041 33.543013 92.937752 35.271484 94.736328 C 35.002079 95.875049 34.851564 97.088518 34.851562 98.353516 L 34.851562 143.02344 C 34.851562 149.47922 38.642263 154.67773 43.349609 154.67773 C 48.056955 154.67773 51.845703 149.47922 51.845703 143.02344 L 51.845703 98.353516 C 51.845703 98.151114 51.83158 97.953713 51.824219 97.753906 L 53.908203 97.753906 C 53.900841 97.953724 53.884766 98.151102 53.884766 98.353516 L 53.884766 143.02344 C 53.884766 149.47922 57.675469 154.67773 62.382812 154.67773 C 67.09016 154.67773 70.878906 149.47922 70.878906 143.02344 L 70.878906 98.353516 C 70.878906 97.146585 70.746143 95.983844 70.5 94.890625 C 72.316906 93.079878 73.443359 90.558978 73.443359 87.759766 L 73.443359 51.123047 L 84.3125 58.128906 C 87.074526 59.909033 90.51074 59.100285 92.015625 56.316406 C 92.781018 54.90051 92.892897 53.25434 92.457031 51.744141 C 92.360439 51.008135 92.154469 50.272492 91.818359 49.568359 L 80.941406 26.78125 C 80.658119 26.187779 80.303029 25.667535 79.902344 25.212891 z M 32.478516 60.431641 L 32.478516 70.923828 L 27.4375 67.800781 L 32.478516 60.431641 z "
               style="opacity:1;fill:#000000;fill-opacity:1;stroke:none;stroke-width:1.61348736;stroke-linecap:round;stroke-linejoin:miter;stroke-miterlimit:4;stroke-dasharray:none;stroke-dashoffset:0.74834645;stroke-opacity:1" />
            <path
               transform="matrix(0.77845967,0,0,0.77845967,-8.7993004,0.0375252)"
               id="rect5503"
               d="M 72.103516 13.957031 L 66.310547 30.384766 L 75.941406 33.988281 L 81.734375 17.5625 L 72.103516 13.957031 z M 72.513672 15.330078 L 80.492188 18.316406 L 75.693359 31.925781 L 67.714844 28.939453 L 72.513672 15.330078 z "
               style="opacity:1;fill:#000000;fill-opacity:1;stroke:none;stroke-width:1.16826832;stroke-linecap:round;stroke-linejoin:miter;stroke-miterlimit:4;stroke-dasharray:none;stroke-dashoffset:0.74834645;stroke-opacity:1" />
            <path
               style="opacity:1;fill:#000000;fill-opacity:1;stroke:none;stroke-width:1.30698442;stroke-linecap:round;stroke-linejoin:miter;stroke-miterlimit:4;stroke-dasharray:none;stroke-dashoffset:0.74834645;stroke-opacity:1"
               d="M 53.689261,6.5108512 A 3.5782185,3.5782185 0 0 0 52.027225,6.9226165 4.0622288,4.1313728 0 0 1 53.170544,6.7530969 4.0622288,4.1313728 0 0 1 57.22403,10.61728 3.5782185,3.5782185 0 0 0 57.26734,10.088936 3.5782185,3.5782185 0 0 0 53.689255,6.5108512 Z"
               id="path4803"
               inkscape:connector-curvature="0" />
            <path
               style="opacity:1;fill:#000000;fill-opacity:1;stroke:none;stroke-width:1.88527036;stroke-linecap:round;stroke-linejoin:miter;stroke-miterlimit:4;stroke-dasharray:none;stroke-dashoffset:0.74834645;stroke-opacity:1"
               d="m 54.796953,4.3272183 a 4.83356,5.5115403 0 0 0 -2.245117,0.6342434 5.4873753,6.3635656 0 0 1 1.544427,-0.2611115 5.4873753,6.3635656 0 0 1 5.47556,5.9520118 4.83356,5.5115403 0 0 0 0.05844,-0.8138101 4.83356,5.5115403 0 0 0 -4.83336,-5.5113336 z"
               id="path4803-8"
               inkscape:connector-curvature="0" />
            <path
               style="opacity:1;fill:#000000;fill-opacity:1;stroke:none;stroke-width:2.69054842;stroke-linecap:round;stroke-linejoin:miter;stroke-miterlimit:4;stroke-dasharray:none;stroke-dashoffset:0.74834645;stroke-opacity:1"
               d="M 54.984325,1.728151 A 6.7382164,8.0524785 0 0 0 51.854524,2.6547944 7.6496662,9.2973058 0 0 1 54.00753,2.2733047 7.6496662,9.2973058 0 0 1 61.640725,10.969321 6.7382164,8.0524785 0 0 0 61.722185,9.7803264 6.7382164,8.0524785 0 0 0 54.984244,1.728151 Z"
               id="path4803-9"
               inkscape:connector-curvature="0" />
            <path
               style="opacity:1;fill:#000000;fill-opacity:1;stroke:none;stroke-width:1.31631398;stroke-linecap:round;stroke-linejoin:miter;stroke-miterlimit:4;stroke-dasharray:none;stroke-dashoffset:0.74834645;stroke-opacity:1"
               d="m 43.847646,19.75806 c 0,6.503549 -5.272167,11.775717 -11.775716,11.775718 -6.50355,0 -11.775718,-5.272168 -11.775718,-11.775718 0,-6.503548 5.272168,-11.7757149 11.775718,-11.7757149 6.503549,0 11.775716,5.2721679 11.775716,11.7757149 z"
               id="path5319"
               inkscape:connector-curvature="0"
               sodipodi:nodetypes="sssss" />
            <rect
               transform="rotate(20.899903)"
               y="-10.827162"
               x="53.42963"
               height="4.6568394"
               width="1.2286919"
               id="rect5532"
               style="opacity:1;fill:#000000;fill-opacity:1;stroke:none;stroke-width:0.85375637;stroke-linecap:round;stroke-linejoin:miter;stroke-miterlimit:4;stroke-dasharray:none;stroke-dashoffset:0.74834645;stroke-opacity:1" />
          </g>
        </g>
      </g>
    </g>
  </g>
</svg>
