<?xml version="1.0" encoding="UTF-8" standalone="no"?>
<!-- Created with Inkscape (http://www.inkscape.org/) -->

<svg
   xmlns:dc="http://purl.org/dc/elements/1.1/"
   xmlns:cc="http://creativecommons.org/ns#"
   xmlns:rdf="http://www.w3.org/1999/02/22-rdf-syntax-ns#"
   xmlns:svg="http://www.w3.org/2000/svg"
   xmlns="http://www.w3.org/2000/svg"
   xmlns:sodipodi="http://sodipodi.sourceforge.net/DTD/sodipodi-0.dtd"
   xmlns:inkscape="http://www.inkscape.org/namespaces/inkscape"
   width="52.596958mm"
   height="56.613251mm"
   viewBox="0 0 52.596958 56.613251"
   version="1.1"
   id="svg6232"
   inkscape:version="0.92.1 r15371"
   sodipodi:docname="check.svg">
  <title
     id="title4512">Leónidas Life Support Icon Set</title>
  <defs
     id="defs6226" />
  <sodipodi:namedview
     id="base"
     pagecolor="#ffffff"
     bordercolor="#666666"
     borderopacity="1.0"
     inkscape:pageopacity="0.0"
     inkscape:pageshadow="2"
     inkscape:zoom="3.041935"
     inkscape:cx="-125.17212"
     inkscape:cy="78.163018"
     inkscape:document-units="mm"
     inkscape:current-layer="g5676"
     showgrid="false"
     showguides="false"
     inkscape:window-width="1362"
     inkscape:window-height="704"
     inkscape:window-x="0"
     inkscape:window-y="0"
     inkscape:window-maximized="1"
     fit-margin-top="0"
     fit-margin-left="0"
     fit-margin-right="0"
     fit-margin-bottom="0" />
  <metadata
     id="metadata6229">
    <rdf:RDF>
      <cc:Work
         rdf:about="">
        <dc:format>image/svg+xml</dc:format>
        <dc:type
           rdf:resource="http://purl.org/dc/dcmitype/StillImage" />
        <dc:title>Leónidas Life Support Icon Set</dc:title>
        <dc:creator>
          <cc:Agent>
            <dc:title>Arbotti Juan Manuel</dc:title>
          </cc:Agent>
        </dc:creator>
        <dc:rights>
          <cc:Agent>
            <dc:title>GNU GPL V3</dc:title>
          </cc:Agent>
        </dc:rights>
        <cc:license
           rdf:resource="https://www.gnu.org/licenses/gpl-3.0.en.html" />
        <dc:subject>
          <rdf:Bag>
            <rdf:li>life support</rdf:li>
            <rdf:li>medical</rdf:li>
            <rdf:li>cpr</rdf:li>
          </rdf:Bag>
        </dc:subject>
        <dc:description>This is an icon set to use in any project realted to basic or advanced life support. Please, don't forge to mention the author in bilbiography.</dc:description>
      </cc:Work>
    </rdf:RDF>
  </metadata>
  <g
     inkscape:label="Capa 1"
     inkscape:groupmode="layer"
     id="layer1"
     transform="translate(-42.991526,-131.58473)">
    <g
       id="g5627"
       transform="translate(-55.806804,36.996649)">
      <g
         id="g5601"
         transform="matrix(0.40514841,0,0,0.40514841,57.011761,69.456479)">
        <g
           id="g5676"
           transform="translate(110.82675,110.82675)">
          <path
             style="opacity:1;fill:#000000;fill-opacity:1;stroke:#000000;stroke-width:0.63777637;stroke-linecap:round;stroke-linejoin:miter;stroke-miterlimit:4;stroke-dasharray:none;stroke-dashoffset:0.74834645;stroke-opacity:1"
             d="m 275.34961,583.81055 c -0.38182,-0.0139 -0.76614,0.0159 -1.14844,0.0918 l -29.04883,6.52344 c -7.63423,1.40939 -2.94816,9.32825 -0.91211,12.69141 l 10.38868,20.44336 c 1.19876,2.35918 4.45447,3.2523 7.39062,1.82422 l 0.45313,-0.22266 c 2.93615,-1.42809 4.17532,-4.50605 2.97656,-6.86523 l -8.56641,-16.85938 1.6211,-0.39258 4.3457,-0.86328 -3.14063,3.23438 7.19922,14.17187 c 1.65314,3.25341 -0.0859,7.25917 -3.70117,9.01758 l -0.45508,0.2207 c -3.61528,1.75841 -7.92889,0.69677 -9.58203,-2.55664 l -4.71094,-9.26758 -15.9082,16.38282 c -1.16907,1.20395 -2.11694,2.44227 -2.85351,3.6289 -3.37201,1.71877 -5.66903,5.49821 -5.60157,9.91016 l 0.83008,54.38672 c 0.0921,6.026 4.55312,10.86624 10.00195,10.85156 l 0.75782,-0.002 c 5.44883,-0.0147 9.76011,-4.8783 9.66797,-10.9043 l -0.48633,-31.8125 12.70117,10.67383 -4.97461,24.13672 c -0.71782,3.4827 3.00378,7.09496 8.34375,8.09961 l 0.74023,0.14062 c 2.55528,0.48075 4.99907,0.26852 6.9375,-0.45898 -1.17721,-1.21889 -1.8897,-2.84739 -1.85742,-4.65235 l 0.008,-0.46484 c 0.0682,-3.80965 3.40341,-6.8498 7.39063,-6.84766 h 0.0957 l 4.83985,-23.48242 c 0.34481,-1.67294 -0.34327,-3.37331 -1.73438,-4.80273 -0.48475,-0.86869 -1.11921,-1.66533 -1.92187,-2.33985 l -19.375,-16.28125 32.54492,-33.51562 6.25586,35.6582 c 0.85414,4.8689 4.58882,8.14177 8.375,7.33984 l 0.52539,-0.11132 c 3.78617,-0.80193 6.14711,-5.36744 5.29297,-10.23633 l -7.62305,-43.45313 c -3.7908,0.6818 -7.81266,0.32176 -11.61719,-1.28711 -8.57641,-3.62682 -13.37928,-12.41832 -12.32226,-21.19531 -0.6836,-0.32294 -1.40548,-0.52597 -2.14258,-0.55273 z"
             transform="matrix(0.65305287,0,0,0.65305287,-113.80086,-373.5777)"
             id="rect5587"
             inkscape:connector-curvature="0" />
          <path
             style="opacity:1;fill:#000000;fill-opacity:1;stroke:#000000;stroke-width:1.0246954;stroke-linecap:round;stroke-linejoin:miter;stroke-miterlimit:4;stroke-dasharray:none;stroke-dashoffset:0.74834645;stroke-opacity:1"
             d="m 238.90625,686.33008 c -5.71415,0 -10.5922,2.92661 -12.69922,7.12109 h -48.41406 c -8.19607,0 -14.79297,3.72325 -14.79297,8.34766 v 0.64258 c 0,4.62441 6.5969,8.3457 14.79297,8.3457 h 73.97265 c 0.32569,0 0.64453,-0.0158 0.96485,-0.0273 h 16.70117 c -1.65896,-1.25118 -2.71303,-3.18531 -2.67383,-5.37696 l 0.008,-0.46484 c 0.0682,-3.80965 3.40341,-6.8498 7.39063,-6.84766 l 32.55664,0.0176 c 0.83806,4.7e-4 1.63947,0.14256 2.38672,0.39063 -0.37028,-1.44865 -0.58789,-2.95869 -0.58789,-4.52149 0,-2.66332 0.58591,-5.18725 1.61328,-7.4707 -0.70162,-0.0928 -1.41531,-0.15625 -2.14844,-0.15625 z m 74.78711,20.35351 c -0.31351,1.43697 -1.09361,2.71043 -2.18555,3.67579 1.60293,-0.35798 3.08461,-0.96045 4.40235,-1.7461 -0.78855,-0.58688 -1.53306,-1.22608 -2.2168,-1.92969 z"
             transform="matrix(0.65305287,0,0,0.65305287,-113.80086,-373.5777)"
             id="rect5581"
             inkscape:connector-curvature="0" />
          <path
             style="color:#000000;font-style:normal;font-variant:normal;font-weight:normal;font-stretch:normal;font-size:medium;line-height:normal;font-family:sans-serif;font-variant-ligatures:normal;font-variant-position:normal;font-variant-caps:normal;font-variant-numeric:normal;font-variant-alternates:normal;font-feature-settings:normal;text-indent:0;text-align:start;text-decoration:none;text-decoration-line:none;text-decoration-style:solid;text-decoration-color:#000000;letter-spacing:normal;word-spacing:normal;text-transform:none;writing-mode:lr-tb;direction:ltr;text-orientation:mixed;dominant-baseline:auto;baseline-shift:baseline;text-anchor:start;white-space:normal;shape-padding:0;clip-rule:nonzero;display:inline;overflow:visible;visibility:visible;opacity:1;isolation:auto;mix-blend-mode:normal;color-interpolation:sRGB;color-interpolation-filters:linearRGB;solid-color:#000000;solid-opacity:1;vector-effect:none;fill:#000000;fill-opacity:1;fill-rule:nonzero;stroke:none;stroke-width:0.98729253;stroke-linecap:round;stroke-linejoin:miter;stroke-miterlimit:4;stroke-dasharray:none;stroke-dashoffset:0.74834645;stroke-opacity:1;color-rendering:auto;image-rendering:auto;shape-rendering:auto;text-rendering:auto;enable-background:accumulate"
             d="m 65.219835,83.28529 21.261716,0.01176 c 2.107818,0.0012 3.729803,1.567922 3.695424,3.489801 l -0.0054,0.304639 c -0.03438,1.921878 -1.712382,3.486811 -3.820201,3.485645 l -21.261716,-0.01176 c -2.107817,-0.0012 -3.731754,-1.567925 -3.697376,-3.489802 l 0.0054,-0.30464 c 0.03438,-1.921878 1.714335,-3.486809 3.822153,-3.485643 z"
             id="rect5585"
             inkscape:connector-curvature="0" />
          <path
             style="color:#000000;font-style:normal;font-variant:normal;font-weight:normal;font-stretch:normal;font-size:medium;line-height:normal;font-family:sans-serif;font-variant-ligatures:normal;font-variant-position:normal;font-variant-caps:normal;font-variant-numeric:normal;font-variant-alternates:normal;font-feature-settings:normal;text-indent:0;text-align:start;text-decoration:none;text-decoration-line:none;text-decoration-style:solid;text-decoration-color:#000000;letter-spacing:normal;word-spacing:normal;text-transform:none;writing-mode:lr-tb;direction:ltr;text-orientation:mixed;dominant-baseline:auto;baseline-shift:baseline;text-anchor:start;white-space:normal;shape-padding:0;clip-rule:nonzero;display:inline;overflow:visible;visibility:visible;opacity:1;isolation:auto;mix-blend-mode:normal;color-interpolation:sRGB;color-interpolation-filters:linearRGB;solid-color:#000000;solid-opacity:1;vector-effect:none;fill:#000000;fill-opacity:1;fill-rule:nonzero;stroke:none;stroke-width:1.26300001;stroke-linecap:round;stroke-linejoin:miter;stroke-miterlimit:4;stroke-dasharray:none;stroke-dashoffset:0.74834645;stroke-opacity:1;color-rendering:auto;image-rendering:auto;shape-rendering:auto;text-rendering:auto;enable-background:accumulate"
             d="m 99.611328,68.939453 c 5.902362,0 10.673832,4.771464 10.673832,10.673828 0,5.902364 -4.77147,10.673828 -10.673832,10.673828 -5.902364,0 -10.673828,-4.771464 -10.673828,-10.673828 0,-5.902364 4.771464,-10.673828 10.673828,-10.673828 z"
             id="circle5589"
             inkscape:connector-curvature="0" />
          <path
             style="color:#000000;font-style:normal;font-variant:normal;font-weight:normal;font-stretch:normal;font-size:medium;line-height:normal;font-family:sans-serif;font-variant-ligatures:normal;font-variant-position:normal;font-variant-caps:normal;font-variant-numeric:normal;font-variant-alternates:normal;font-feature-settings:normal;text-indent:0;text-align:start;text-decoration:none;text-decoration-line:none;text-decoration-style:solid;text-decoration-color:#000000;letter-spacing:normal;word-spacing:normal;text-transform:none;writing-mode:lr-tb;direction:ltr;text-orientation:mixed;dominant-baseline:auto;baseline-shift:baseline;text-anchor:start;white-space:normal;shape-padding:0;clip-rule:nonzero;display:inline;overflow:visible;visibility:visible;opacity:1;isolation:auto;mix-blend-mode:normal;color-interpolation:sRGB;color-interpolation-filters:linearRGB;solid-color:#000000;solid-opacity:1;vector-effect:none;fill:#000000;fill-opacity:1;fill-rule:nonzero;stroke:none;stroke-width:1.4150759;stroke-linecap:round;stroke-linejoin:miter;stroke-miterlimit:4;stroke-dasharray:none;stroke-dashoffset:0.74834645;stroke-opacity:1;color-rendering:auto;image-rendering:auto;shape-rendering:auto;text-rendering:auto;enable-background:accumulate"
             d="m 85.367562,-1.3682141 c 6.086641,2.5856055 8.917604,9.5943587 6.331998,15.6809981 -2.585605,6.086641 -9.596156,8.91684 -15.682796,6.331235 -6.08664,-2.585606 -8.916839,-9.596156 -6.331234,-15.6827969 2.585605,-6.0866396 9.595393,-8.9150413 15.682032,-6.3294362 z"
             id="circle5599"
             inkscape:connector-curvature="0" />
          <path
             style="opacity:1;fill:#000000;fill-opacity:0.99492385;stroke:none;stroke-width:0.96720874;stroke-linecap:round;stroke-linejoin:miter;stroke-miterlimit:4;stroke-dasharray:none;stroke-dashoffset:0.74834645;stroke-opacity:1"
             d="m 328.18359,497.32812 a 33.095179,20.453944 0 0 0 -33.0957,20.45313 33.095179,20.453944 0 0 0 8.80273,13.86133 v 30.41211 l 8.95899,-26.16211 a 33.095179,20.453944 0 0 0 15.33398,2.34375 33.095179,20.453944 0 0 0 33.09571,-20.45508 33.095179,20.453944 0 0 0 -33.09571,-20.45313 z m -0.13281,8.2129 c 1.73622,0 3.12839,0.45775 4.17578,1.37304 1.05683,0.91529 1.58399,2.12273 1.58399,3.62305 0,0.71713 -0.16812,1.40165 -0.50782,2.05273 -0.33969,0.64165 -0.93396,1.3682 -1.7832,2.17969 l -1.24609,1.2168 c -0.44349,0.44349 -0.7605,0.7921 -0.94922,1.04687 -0.17928,0.24534 -0.30537,0.48676 -0.38086,0.72266 -0.0566,0.19815 -0.1006,0.43958 -0.12891,0.72266 -0.0283,0.28307 -0.041,0.66948 -0.041,1.16015 v 1.74024 h -2.70508 v -2.17969 c 0,-0.95303 0.13228,-1.73627 0.39648,-2.34961 0.26421,-0.61334 0.82264,-1.32523 1.67188,-2.13672 l 1.27344,-1.25977 c 0.53785,-0.5001 0.92425,-0.97252 1.16015,-1.41601 0.24534,-0.44349 0.36719,-0.89506 0.36719,-1.35742 0,-0.8398 -0.31082,-1.52009 -0.93359,-2.03907 -0.61334,-0.51897 -1.43014,-0.77734 -2.44922,-0.77734 -0.74544,0 -1.54139,0.16388 -2.39063,0.49414 -0.8398,0.33026 -1.71752,0.81115 -2.63281,1.44336 v -2.66016 c 0.88698,-0.53784 1.7836,-0.93891 2.68945,-1.20312 0.91529,-0.26421 1.85818,-0.39648 2.83008,-0.39648 z m -2.0664,17.91992 h 2.87304 v 3.59375 h -2.87304 z"
             id="path5646"
             transform="matrix(0.65305287,0,0,0.65305287,-113.80086,-373.5777)"
             inkscape:connector-curvature="0" />
        </g>
      </g>
    </g>
  </g>
</svg>
