<?xml version="1.0" encoding="UTF-8" standalone="no"?>
<!-- Created with Inkscape (http://www.inkscape.org/) -->

<svg
   xmlns:dc="http://purl.org/dc/elements/1.1/"
   xmlns:cc="http://creativecommons.org/ns#"
   xmlns:rdf="http://www.w3.org/1999/02/22-rdf-syntax-ns#"
   xmlns:svg="http://www.w3.org/2000/svg"
   xmlns="http://www.w3.org/2000/svg"
   xmlns:sodipodi="http://sodipodi.sourceforge.net/DTD/sodipodi-0.dtd"
   xmlns:inkscape="http://www.inkscape.org/namespaces/inkscape"
   width="35.132763mm"
   height="34.931362mm"
   viewBox="0 0 35.132762 34.931362"
   version="1.1"
   id="svg4701"
   sodipodi:docname="compression.svg"
   inkscape:version="0.92.1 r15371"
   inkscape:export-filename="/home/juanar/Escritorio/Infografía SVB/iconos/96px/compression.png"
   inkscape:export-xdpi="96"
   inkscape:export-ydpi="96">
  <title
     id="title5410">Leónidas Life Support Icon Set</title>
  <defs
     id="defs4695" />
  <sodipodi:namedview
     id="base"
     pagecolor="#ffffff"
     bordercolor="#666666"
     borderopacity="1.0"
     inkscape:pageopacity="0.0"
     inkscape:pageshadow="2"
     inkscape:zoom="1.979899"
     inkscape:cx="113.60229"
     inkscape:cy="76.662109"
     inkscape:document-units="mm"
     inkscape:current-layer="g4499"
     showgrid="false"
     fit-margin-top="0"
     fit-margin-left="0"
     fit-margin-right="0"
     fit-margin-bottom="0"
     inkscape:window-width="1362"
     inkscape:window-height="704"
     inkscape:window-x="0"
     inkscape:window-y="0"
     inkscape:window-maximized="1" />
  <metadata
     id="metadata4698">
    <rdf:RDF>
      <cc:Work
         rdf:about="">
        <dc:format>image/svg+xml</dc:format>
        <dc:type
           rdf:resource="http://purl.org/dc/dcmitype/StillImage" />
        <dc:title>Leónidas Life Support Icon Set</dc:title>
        <cc:license
           rdf:resource="http://creativecommons.org/licenses/by-nc-sa/4.0/" />
        <dc:creator>
          <cc:Agent>
            <dc:title>Arbotti Juan Manuel</dc:title>
          </cc:Agent>
        </dc:creator>
        <dc:rights>
          <cc:Agent>
            <dc:title>Creative Commons</dc:title>
          </cc:Agent>
        </dc:rights>
        <dc:description>This is an icon set to use in any project realted to basic or advanced life support. Please, don't forge to mention the author in bilbiography.</dc:description>
        <dc:subject>
          <rdf:Bag>
            <rdf:li>life support</rdf:li>
            <rdf:li>medical</rdf:li>
            <rdf:li>cpr</rdf:li>
          </rdf:Bag>
        </dc:subject>
      </cc:Work>
      <cc:License
         rdf:about="http://creativecommons.org/licenses/by-nc-sa/4.0/">
        <cc:permits
           rdf:resource="http://creativecommons.org/ns#Reproduction" />
        <cc:permits
           rdf:resource="http://creativecommons.org/ns#Distribution" />
        <cc:requires
           rdf:resource="http://creativecommons.org/ns#Notice" />
        <cc:requires
           rdf:resource="http://creativecommons.org/ns#Attribution" />
        <cc:prohibits
           rdf:resource="http://creativecommons.org/ns#CommercialUse" />
        <cc:permits
           rdf:resource="http://creativecommons.org/ns#DerivativeWorks" />
        <cc:requires
           rdf:resource="http://creativecommons.org/ns#ShareAlike" />
      </cc:License>
    </rdf:RDF>
  </metadata>
  <g
     inkscape:label="Capa 1"
     inkscape:groupmode="layer"
     id="layer1"
     transform="translate(-15.540716,-38.42836)">
    <g
       id="g4705"
       transform="matrix(0.33971987,0,0,0.33971987,11.36357,20.277033)">
      <g
         id="g5408"
         transform="translate(-8.6227382,-5.4902534)">
        <g
           id="g5338"
           transform="translate(8.6228501,2.0793992)">
          <g
             id="g4499"
             transform="matrix(1.1925956,0,0,1.1925956,6.1084013,50.242724)">
            <g
               id="g4589"
               transform="translate(0.70787006,-0.343565)">
              <path
                 id="rect4489"
                 transform="matrix(0.65305285,0,0,0.65305285,5.18813,5.5328126)"
                 d="m 72.005859,113.55469 c -4.532771,0 -8.18164,3.64887 -8.18164,8.18164 v 0.6289 c 0,4.53278 3.648869,8.1836 8.18164,8.1836 h 13.572266 c -6.516626,-2.79627 -11.091797,-9.27036 -11.091797,-16.80274 0,-0.0646 0.0091,-0.12696 0.0098,-0.1914 z m 39.027341,0 c 6.7e-4,0.0645 0.01,0.1268 0.01,0.1914 0,7.53238 -4.57628,14.00647 -11.093751,16.80274 h 12.966801 c 4.53277,0 8.18164,-3.65082 8.18164,-8.1836 v -0.6289 c 0,-4.53277 -3.64887,-8.18164 -8.18164,-8.18164 z"
                 style="opacity:1;fill:#000000;fill-opacity:1;stroke:#000000;stroke-width:0.65772337;stroke-linecap:round;stroke-linejoin:miter;stroke-miterlimit:4;stroke-dasharray:none;stroke-dashoffset:0.74834645;stroke-opacity:1"
                 inkscape:connector-curvature="0" />
              <path
                 id="rect4489-3"
                 transform="matrix(0.65305285,0,0,0.65305285,5.18813,5.5328126)"
                 d="M 91.365234,27.546875 C 88.615951,27.44035 85.813133,28.257871 83.443359,30.0625 L 34.556641,67.289062 c -1.026759,0.781897 -1.894697,1.693573 -2.601563,2.691407 -3.846329,1.959456 -5.998834,5.915135 -4.974609,9.748047 l 8.953125,33.509764 H 8.6132812 c -4.58696,0 -8.27929682,3.72325 -8.27929682,8.34766 v 0.64258 c -1e-8,4.62441 3.69233682,8.34765 8.27929682,8.34765 H 50.011719 c 4.586961,0 8.28125,-3.72324 8.28125,-8.34765 v -0.64258 c 0,-0.86493 -0.129091,-1.69903 -0.369141,-2.48242 0.179253,-1.04861 0.150599,-2.13182 -0.136719,-3.20704 L 50.189453,87.466797 85.927734,60.251953 85.900391,47.707031 c -0.0055,-2.498647 0.686581,-4.768192 1.861328,-6.453125 1.174744,-1.684932 2.874809,-2.801972 4.794922,-2.810547 l 0.46289,-0.002 c 1.92011,-0.0086 3.624464,1.091286 4.806641,2.765625 1.182177,1.674339 1.887065,3.938853 1.892578,6.4375 l 0.0039,2.03711 c 3.06371,-2.773796 4.42495,-6.786941 3.92188,-10.667922 C 98.860459,36.769648 95.09111,32.73852 93.191406,27.773438 92.588219,27.658362 91.979227,27.570665 91.365234,27.546875 Z"
                 style="opacity:1;fill:#000000;fill-opacity:1;stroke:#000000;stroke-width:0.66829795;stroke-linecap:round;stroke-linejoin:miter;stroke-miterlimit:4;stroke-dasharray:none;stroke-dashoffset:0.74834645;stroke-opacity:1"
                 inkscape:connector-curvature="0" />
              <path
                 id="rect4489-3-6-7-5"
                 transform="matrix(0.65305285,0,0,0.65305285,5.18813,5.5328126)"
                 d="m 93.023438,39.775391 -0.464844,0.002 c -1.409833,0.0063 -2.707939,0.814538 -3.699219,2.236328 -0.991281,1.42179 -1.6299,3.440052 -1.625,5.6875 l 0.0957,42.835937 c 0.0046,2.099731 0.573298,3.986827 1.460938,5.378907 1.280835,-0.285006 2.606792,-0.447266 3.972656,-0.447266 1.453653,0 2.860488,0.188087 4.216797,0.509766 0.917877,-1.408794 1.502733,-3.342885 1.498047,-5.492188 l -0.09375,-42.835937 c -0.005,-2.247449 -0.650885,-4.259023 -1.648438,-5.671875 -0.997553,-1.412851 -2.303061,-2.209404 -3.71289,-2.203125 z"
                 style="color:#000000;font-style:normal;font-variant:normal;font-weight:normal;font-stretch:normal;font-size:medium;line-height:normal;font-family:sans-serif;font-variant-ligatures:normal;font-variant-position:normal;font-variant-caps:normal;font-variant-numeric:normal;font-variant-alternates:normal;font-feature-settings:normal;text-indent:0;text-align:start;text-decoration:none;text-decoration-line:none;text-decoration-style:solid;text-decoration-color:#000000;letter-spacing:normal;word-spacing:normal;text-transform:none;writing-mode:lr-tb;direction:ltr;text-orientation:mixed;dominant-baseline:auto;baseline-shift:baseline;text-anchor:start;white-space:normal;shape-padding:0;clip-rule:nonzero;display:inline;overflow:visible;visibility:visible;opacity:1;isolation:auto;mix-blend-mode:normal;color-interpolation:sRGB;color-interpolation-filters:linearRGB;solid-color:#000000;solid-opacity:1;vector-effect:none;fill:#000000;fill-opacity:1;fill-rule:nonzero;stroke:none;stroke-width:1.33417332;stroke-linecap:round;stroke-linejoin:miter;stroke-miterlimit:4;stroke-dasharray:none;stroke-dashoffset:0.74834645;stroke-opacity:1;color-rendering:auto;image-rendering:auto;shape-rendering:auto;text-rendering:auto;enable-background:accumulate"
                 inkscape:connector-curvature="0" />
              <path
                 id="path4487-3"
                 d="m 78.529297,6.9472656 c 6.613059,0 11.958984,5.3459254 11.958984,11.9589844 0,6.613059 -5.345925,11.958984 -11.958984,11.958984 -6.613059,0 -11.958985,-5.345925 -11.958985,-11.958984 0,-6.613059 5.345926,-11.9589844 11.958985,-11.9589844 z"
                 style="color:#000000;font-style:normal;font-variant:normal;font-weight:normal;font-stretch:normal;font-size:medium;line-height:normal;font-family:sans-serif;font-variant-ligatures:normal;font-variant-position:normal;font-variant-caps:normal;font-variant-numeric:normal;font-variant-alternates:normal;font-feature-settings:normal;text-indent:0;text-align:start;text-decoration:none;text-decoration-line:none;text-decoration-style:solid;text-decoration-color:#000000;letter-spacing:normal;word-spacing:normal;text-transform:none;writing-mode:lr-tb;direction:ltr;text-orientation:mixed;dominant-baseline:auto;baseline-shift:baseline;text-anchor:start;white-space:normal;shape-padding:0;clip-rule:nonzero;display:inline;overflow:visible;visibility:visible;opacity:1;isolation:auto;mix-blend-mode:normal;color-interpolation:sRGB;color-interpolation-filters:linearRGB;solid-color:#000000;solid-opacity:1;vector-effect:none;fill:#000000;fill-opacity:1;fill-rule:nonzero;stroke:none;stroke-width:1.4150759;stroke-linecap:round;stroke-linejoin:miter;stroke-miterlimit:4;stroke-dasharray:none;stroke-dashoffset:0.74834645;stroke-opacity:1;color-rendering:auto;image-rendering:auto;shape-rendering:auto;text-rendering:auto;enable-background:accumulate"
                 inkscape:connector-curvature="0" />
              <path
                 id="path4487"
                 d="m 65.767578,69.140625 c 5.902364,0 10.673828,4.771464 10.673828,10.673828 0,5.902364 -4.771464,10.673828 -10.673828,10.673828 -5.902364,0 -10.673828,-4.771464 -10.673828,-10.673828 0,-5.902364 4.771464,-10.673828 10.673828,-10.673828 z"
                 style="color:#000000;font-style:normal;font-variant:normal;font-weight:normal;font-stretch:normal;font-size:medium;line-height:normal;font-family:sans-serif;font-variant-ligatures:normal;font-variant-position:normal;font-variant-caps:normal;font-variant-numeric:normal;font-variant-alternates:normal;font-feature-settings:normal;text-indent:0;text-align:start;text-decoration:none;text-decoration-line:none;text-decoration-style:solid;text-decoration-color:#000000;letter-spacing:normal;word-spacing:normal;text-transform:none;writing-mode:lr-tb;direction:ltr;text-orientation:mixed;dominant-baseline:auto;baseline-shift:baseline;text-anchor:start;white-space:normal;shape-padding:0;clip-rule:nonzero;display:inline;overflow:visible;visibility:visible;opacity:1;isolation:auto;mix-blend-mode:normal;color-interpolation:sRGB;color-interpolation-filters:linearRGB;solid-color:#000000;solid-opacity:1;vector-effect:none;fill:#000000;fill-opacity:1;fill-rule:nonzero;stroke:none;stroke-width:1.26300001;stroke-linecap:round;stroke-linejoin:miter;stroke-miterlimit:4;stroke-dasharray:none;stroke-dashoffset:0.74834645;stroke-opacity:1;color-rendering:auto;image-rendering:auto;shape-rendering:auto;text-rendering:auto;enable-background:accumulate"
                 inkscape:connector-curvature="0" />
            </g>
          </g>
        </g>
      </g>
    </g>
  </g>
</svg>
