<?xml version="1.0" encoding="UTF-8" standalone="no"?>
<!-- Created with Inkscape (http://www.inkscape.org/) -->

<svg
   xmlns:dc="http://purl.org/dc/elements/1.1/"
   xmlns:cc="http://creativecommons.org/ns#"
   xmlns:rdf="http://www.w3.org/1999/02/22-rdf-syntax-ns#"
   xmlns:svg="http://www.w3.org/2000/svg"
   xmlns="http://www.w3.org/2000/svg"
   xmlns:sodipodi="http://sodipodi.sourceforge.net/DTD/sodipodi-0.dtd"
   xmlns:inkscape="http://www.inkscape.org/namespaces/inkscape"
   width="18.089249mm"
   height="26.96949mm"
   viewBox="0 0 18.089249 26.96949"
   version="1.1"
   id="svg5522"
   inkscape:version="0.92.1 r15371"
   sodipodi:docname="laringeal.svg">
  <title
     id="title4485">Leónidas Life Support Icon Set</title>
  <defs
     id="defs5516" />
  <sodipodi:namedview
     id="base"
     pagecolor="#ffffff"
     bordercolor="#666666"
     borderopacity="1.0"
     inkscape:pageopacity="0.0"
     inkscape:pageshadow="2"
     inkscape:zoom="3.1706321"
     inkscape:cx="22.956843"
     inkscape:cy="42.529971"
     inkscape:document-units="mm"
     inkscape:current-layer="g4549"
     showgrid="false"
     inkscape:window-width="1362"
     inkscape:window-height="704"
     inkscape:window-x="0"
     inkscape:window-y="0"
     inkscape:window-maximized="1"
     fit-margin-top="0"
     fit-margin-left="0"
     fit-margin-right="0"
     fit-margin-bottom="0" />
  <metadata
     id="metadata5519">
    <rdf:RDF>
      <cc:Work
         rdf:about="">
        <dc:format>image/svg+xml</dc:format>
        <dc:type
           rdf:resource="http://purl.org/dc/dcmitype/StillImage" />
        <dc:title>Leónidas Life Support Icon Set</dc:title>
        <dc:creator>
          <cc:Agent>
            <dc:title>Arbotti Juan Manuel</dc:title>
          </cc:Agent>
        </dc:creator>
        <dc:rights>
          <cc:Agent>
            <dc:title>GNU GPL V3</dc:title>
          </cc:Agent>
        </dc:rights>
        <dc:subject>
          <rdf:Bag>
            <rdf:li>life support</rdf:li>
            <rdf:li>medical</rdf:li>
            <rdf:li>cpr</rdf:li>
          </rdf:Bag>
        </dc:subject>
        <dc:description>This is an icon set to use in any project realted to basic or advanced life support. Please, don't forget to mention the author in bilbiography.</dc:description>
        <cc:license
           rdf:resource="https://www.gnu.org/licenses/gpl-3.0.en.html" />
      </cc:Work>
    </rdf:RDF>
  </metadata>
  <g
     inkscape:label="Capa 1"
     inkscape:groupmode="layer"
     id="layer1"
     transform="translate(-107.78447,-187.51996)">
    <g
       id="g4549"
       transform="matrix(0.99809838,-0.06164111,0.05470087,0.88572144,-7.6740703,35.109669)">
      <g
         id="g4601">
        <path
           style="opacity:1;fill:#000000;fill-opacity:1;stroke:none;stroke-width:1.68139195;stroke-linecap:round;stroke-linejoin:miter;stroke-miterlimit:4;stroke-dasharray:none;stroke-dashoffset:0.74834645;stroke-opacity:1"
           d="m 29.675781,73.09375 c -5.32827,8.222796 -11.774349,16.629242 -18.916015,25.027344 -0.316974,0.39206 -0.589161,0.730821 -0.9140629,1.132812 3.8309289,-0.0038 12.4912089,-5.597721 19.1132809,-11.074218 5.461947,-5.153651 8.420545,-9.147266 8.712891,-12.148438 -0.457096,0.722381 -0.911378,1.444768 -1.373047,2.166016 -0.559861,0.874582 -1.218265,1.463556 -1.984375,1.585937 -0.383093,0.06085 -0.787226,-0.01497 -1.136719,-0.216797 -0.349606,-0.202582 -0.651084,-0.520343 -0.919922,-0.951172 l -1.707031,-2.734375 c -0.467729,-0.749609 -0.763389,-1.751914 -0.875,-2.787109 z"
           transform="matrix(0.2640802,0.01837846,-0.01630921,0.29758568,105.54361,179.41997)"
           id="path4527"
           inkscape:connector-curvature="0" />
        <path
           style="color:#000000;font-style:normal;font-variant:normal;font-weight:normal;font-stretch:normal;font-size:medium;line-height:normal;font-family:sans-serif;font-variant-ligatures:normal;font-variant-position:normal;font-variant-caps:normal;font-variant-numeric:normal;font-variant-alternates:normal;font-feature-settings:normal;text-indent:0;text-align:start;text-decoration:none;text-decoration-line:none;text-decoration-style:solid;text-decoration-color:#000000;letter-spacing:normal;word-spacing:normal;text-transform:none;writing-mode:lr-tb;direction:ltr;text-orientation:mixed;dominant-baseline:auto;baseline-shift:baseline;text-anchor:start;white-space:normal;shape-padding:0;clip-rule:nonzero;display:inline;overflow:visible;visibility:visible;opacity:1;isolation:auto;mix-blend-mode:normal;color-interpolation:sRGB;color-interpolation-filters:linearRGB;solid-color:#000000;solid-opacity:1;vector-effect:none;fill:#000000;fill-opacity:1;fill-rule:nonzero;stroke:none;stroke-width:0.32346988;stroke-linecap:round;stroke-linejoin:miter;stroke-miterlimit:4;stroke-dasharray:none;stroke-dashoffset:0.74834645;stroke-opacity:1;color-rendering:auto;image-rendering:auto;shape-rendering:auto;text-rendering:auto;enable-background:accumulate"
           d="m 112.29283,198.18511 c 0.20306,-0.0163 0.42972,0.0558 0.59956,0.20049 l 0.10666,0.089 c 0.16851,0.14362 0.32588,0.21251 0.44193,0.25568 0.0989,0.0368 0.1306,0.0576 0.13234,0.0489 -0.006,0.0218 -0.0131,0.0506 -0.0392,0.10752 -0.0645,0.14105 -0.19714,0.37573 -0.40814,0.73457 -1.90845,3.24569 -4.4855,6.60162 -7.3885,9.91604 -0.29456,0.33631 -0.7503,0.4104 -1.09069,0.12035 l -0.10666,-0.089 c -0.34041,-0.29006 -0.41669,-0.80276 -0.14596,-1.12154 l 0.0982,-0.11445 -0.002,-0.002 c 2.77298,-3.31518 5.33011,-6.48958 7.33238,-9.85599 0.0966,-0.17742 0.26679,-0.273 0.46983,-0.28925 z"
           id="rect4525"
           inkscape:connector-curvature="0"
           sodipodi:nodetypes="cccccccccccccccc" />
        <path
           inkscape:connector-curvature="0"
           id="rect4535"
           transform="matrix(0.2640802,0.01837846,-0.01630921,0.29758568,106.27863,174.73925)"
           d="m 59.025391,27.324219 c -1.526029,4.461761 -3.138329,8.821105 -4.833985,13.082031 l 2.179688,0.892578 c 0.647984,0.264869 1.051068,0.715894 0.902344,1.011719 -0.148482,0.295474 -0.789917,0.321769 -1.4375,0.05664 l -2.091797,-0.855469 c -0.830953,2.061015 -1.676518,4.103157 -2.548829,6.115234 l 1.65625,0.677735 c 0.647872,0.264875 1.048739,0.715916 0.900391,1.011718 -0.14854,0.295142 -0.789916,0.321769 -1.4375,0.05664 l -1.601562,-0.65625 c -0.894634,2.036596 -1.80579,4.05222 -2.744141,6.037109 l 1.359375,0.556641 c 0.647909,0.264873 1.050692,0.715917 0.902344,1.011719 -0.148482,0.295474 -0.789841,0.321764 -1.4375,0.05664 l -1.339844,-0.548828 c -0.962886,2.00985 -1.949829,3.994073 -2.958984,5.949219 l 1.314453,0.537109 c 0.648018,0.264799 1.049115,0.715894 0.90039,1.011719 -0.14854,0.295142 -0.789916,0.321769 -1.4375,0.05664 l -1.328125,-0.542969 c -1.036987,1.98209 -2.099442,3.931426 -3.185547,5.855469 l 1.527344,0.625 c 0.648018,0.264799 1.049116,0.715893 0.900391,1.011718 -0.148519,0.295477 -0.787926,0.319814 -1.435547,0.05469 l -1.580078,-0.646484 c -3.292682,5.753293 -6.8096,11.2437 -10.564453,16.451171 -0.481927,0.668504 -0.673908,1.672523 -0.601563,2.667969 0.07284,0.995416 0.403041,1.979182 0.863282,2.601563 l 1.710937,2.320312 c 0.230132,0.311072 0.470012,0.500043 0.689453,0.595703 0.219102,0.09568 0.415431,0.106516 0.628906,0.05469 0.427044,-0.103999 0.967719,-0.537721 1.447266,-1.296875 12.488625,-19.772967 23.159794,-39.797343 29.912109,-60.376953 -0.06132,-0.04863 -0.122326,-0.08642 -0.183593,-0.146485 L 59.675781,28.29297 c -0.262449,-0.257998 -0.47978,-0.593213 -0.65039,-0.968751 z"
           style="color:#000000;font-style:normal;font-variant:normal;font-weight:normal;font-stretch:normal;font-size:medium;line-height:normal;font-family:sans-serif;font-variant-ligatures:normal;font-variant-position:normal;font-variant-caps:normal;font-variant-numeric:normal;font-variant-alternates:normal;font-feature-settings:normal;text-indent:0;text-align:start;text-decoration:none;text-decoration-line:none;text-decoration-style:solid;text-decoration-color:#000000;letter-spacing:normal;word-spacing:normal;text-transform:none;writing-mode:lr-tb;direction:ltr;text-orientation:mixed;dominant-baseline:auto;baseline-shift:baseline;text-anchor:start;white-space:normal;shape-padding:0;clip-rule:nonzero;display:inline;overflow:visible;visibility:visible;opacity:1;isolation:auto;mix-blend-mode:normal;color-interpolation:sRGB;color-interpolation-filters:linearRGB;solid-color:#000000;solid-opacity:1;vector-effect:none;fill:#000000;fill-opacity:1;fill-rule:nonzero;stroke:none;stroke-width:0.63217384;stroke-linecap:round;stroke-linejoin:miter;stroke-miterlimit:4;stroke-dasharray:none;stroke-dashoffset:0.74834645;stroke-opacity:1;color-rendering:auto;image-rendering:auto;shape-rendering:auto;text-rendering:auto;enable-background:accumulate" />
        <path
           inkscape:connector-curvature="0"
           id="rect4565"
           d="m 122.68348,180.70005 0.97253,1.29033 c 0.14084,0.18685 0.1883,0.59995 0.0833,0.93397 l -0.6234,1.98428 c -0.10491,0.33402 -0.30717,0.41351 -0.44799,0.22669 l -0.97253,-1.29033 c -0.14082,-0.18685 -0.18876,-0.59832 -0.0838,-0.93233 l 0.62341,-1.98428 c 0.1049,-0.33403 0.30767,-0.41515 0.44848,-0.22831 z"
           style="color:#000000;font-style:normal;font-variant:normal;font-weight:normal;font-stretch:normal;font-size:medium;line-height:normal;font-family:sans-serif;font-variant-ligatures:normal;font-variant-position:normal;font-variant-caps:normal;font-variant-numeric:normal;font-variant-alternates:normal;font-feature-settings:normal;text-indent:0;text-align:start;text-decoration:none;text-decoration-line:none;text-decoration-style:solid;text-decoration-color:#000000;letter-spacing:normal;word-spacing:normal;text-transform:none;writing-mode:lr-tb;direction:ltr;text-orientation:mixed;dominant-baseline:auto;baseline-shift:baseline;text-anchor:start;white-space:normal;shape-padding:0;clip-rule:nonzero;display:inline;overflow:visible;visibility:visible;opacity:1;isolation:auto;mix-blend-mode:normal;color-interpolation:sRGB;color-interpolation-filters:linearRGB;solid-color:#000000;solid-opacity:1;vector-effect:none;fill:#000000;fill-opacity:1;fill-rule:nonzero;stroke:none;stroke-width:0.19249906;stroke-linecap:round;stroke-linejoin:miter;stroke-miterlimit:4;stroke-dasharray:none;stroke-dashoffset:0.74834645;stroke-opacity:1;color-rendering:auto;image-rendering:auto;shape-rendering:auto;text-rendering:auto;enable-background:accumulate" />
      </g>
    </g>
  </g>
</svg>
