<?xml version="1.0" encoding="UTF-8" standalone="no"?>
<!-- Created with Inkscape (http://www.inkscape.org/) -->

<svg
   xmlns:dc="http://purl.org/dc/elements/1.1/"
   xmlns:cc="http://creativecommons.org/ns#"
   xmlns:rdf="http://www.w3.org/1999/02/22-rdf-syntax-ns#"
   xmlns:svg="http://www.w3.org/2000/svg"
   xmlns="http://www.w3.org/2000/svg"
   xmlns:sodipodi="http://sodipodi.sourceforge.net/DTD/sodipodi-0.dtd"
   xmlns:inkscape="http://www.inkscape.org/namespaces/inkscape"
   width="21.715992mm"
   height="38.33065mm"
   viewBox="0 0 21.715992 38.33065"
   version="1.1"
   id="svg4775"
   inkscape:version="0.92.1 r15371"
   sodipodi:docname="medic.svg"
   inkscape:export-filename="/home/juanar/Documentos/Proyectos/leonidas/PNG/medic.png"
   inkscape:export-xdpi="300"
   inkscape:export-ydpi="300">
  <title
     id="title4492">Leónidas Life Support Icon Set</title>
  <defs
     id="defs4769" />
  <sodipodi:namedview
     id="base"
     pagecolor="#ffffff"
     bordercolor="#666666"
     borderopacity="1.0"
     inkscape:pageopacity="0.0"
     inkscape:pageshadow="2"
     inkscape:zoom="1.585316"
     inkscape:cx="-31.362963"
     inkscape:cy="18.597314"
     inkscape:document-units="mm"
     inkscape:current-layer="g6251"
     showgrid="false"
     fit-margin-top="0"
     fit-margin-left="0"
     fit-margin-right="0"
     fit-margin-bottom="0"
     inkscape:window-width="1362"
     inkscape:window-height="704"
     inkscape:window-x="0"
     inkscape:window-y="0"
     inkscape:window-maximized="1" />
  <metadata
     id="metadata4772">
    <rdf:RDF>
      <cc:Work
         rdf:about="">
        <dc:format>image/svg+xml</dc:format>
        <dc:type
           rdf:resource="http://purl.org/dc/dcmitype/StillImage" />
        <dc:title>Leónidas Life Support Icon Set</dc:title>
        <cc:license
           rdf:resource="https://www.gnu.org/licenses/gpl-3.0.en.html" />
        <dc:creator>
          <cc:Agent>
            <dc:title>Arbotti Juan Manuel</dc:title>
          </cc:Agent>
        </dc:creator>
        <dc:rights>
          <cc:Agent>
            <dc:title>GNU GPL V3</dc:title>
          </cc:Agent>
        </dc:rights>
        <dc:subject>
          <rdf:Bag>
            <rdf:li>life support</rdf:li>
            <rdf:li>medical</rdf:li>
            <rdf:li>cpr</rdf:li>
          </rdf:Bag>
        </dc:subject>
        <dc:description>This is an icon set to use in any project realted to basic or advanced life support. Please, don't forget to mention the author in bilbiography.</dc:description>
      </cc:Work>
    </rdf:RDF>
  </metadata>
  <g
     inkscape:label="Capa 1"
     inkscape:groupmode="layer"
     id="layer1"
     transform="translate(-45.235995,-210.79574)">
    <g
       id="g6251"
       transform="translate(-74.752165,-26.053867)">
      <path
         style="opacity:1;fill:#000000;fill-opacity:1;stroke:none;stroke-width:1.82971764;stroke-linecap:round;stroke-linejoin:miter;stroke-miterlimit:4;stroke-dasharray:none;stroke-dashoffset:0.74834645;stroke-opacity:1"
         d="m 196.38672,820.99805 c -4.52772,0 -8.40738,1.43362 -10.22852,3.51172 -1.65584,1.61343 -2.74414,4.364 -2.74414,7.50195 v 34.55664 c 0,4.99424 2.75283,9.01562 6.17188,9.01562 3.41905,0 6.17187,-4.02138 6.17187,-9.01562 v -33.24414 c 0.20958,0.006 0.41638,0.0176 0.62891,0.0176 h 1.37109 v 42.39648 h 5.98047 c 3.10995,0 5.63086,2.52091 5.63086,5.63086 v 22.23242 c 0,3.10995 -2.52091,5.63086 -5.63086,5.63086 h -3.60742 v 20.69922 c 0,6.45273 3.78707,11.64844 8.49219,11.64844 4.70512,0 8.49414,-5.19571 8.49414,-11.64844 v -26.95898 h 2.03711 v 26.95898 c 0,6.45273 3.78902,11.64844 8.49414,11.64844 4.70512,0 8.49219,-5.19571 8.49218,-11.64844 v -26.95898 h 2.5625 V 833.3418 h 1.15821 c 0.28399,0 0.56322,-0.0124 0.84179,-0.0234 v 33.25195 c 0,4.99425 2.75283,9.01563 6.17188,9.01563 3.41905,0 6.17187,-4.02138 6.17188,-9.01563 v -34.55664 c 0,-3.79409 -1.59097,-7.02113 -3.85352,-8.35547 -2.04311,-1.60805 -5.45204,-2.66015 -9.33203,-2.66015 h -7.45117 c -3.0195,4.93 -8.44188,8.23437 -14.63868,8.23437 -6.19677,0 -11.61721,-3.30437 -14.63671,-8.23437 z m 31.82226,9.58203 h 3.10352 v 4.45703 h 4.45898 v 3.10351 h -4.45898 v 4.45899 h -3.10352 v -4.45899 H 223.75 v -3.10351 h 4.45898 z m -9.97851,14.5293 a 1.0852257,1.0852257 0 0 1 1.08594,1.08593 1.0852257,1.0852257 0 0 1 -1.08594,1.08594 1.0852257,1.0852257 0 0 1 -1.08594,-1.08594 1.0852257,1.0852257 0 0 1 1.08594,-1.08593 z m 0,10.52734 a 1.0852257,1.0852257 0 0 1 1.08594,1.08594 1.0852257,1.0852257 0 0 1 -1.08594,1.08398 1.0852257,1.0852257 0 0 1 -1.08594,-1.08398 1.0852257,1.0852257 0 0 1 1.08594,-1.08594 z m 0,10.52734 a 1.0852257,1.0852257 0 0 1 1.08594,1.08594 1.0852257,1.0852257 0 0 1 -1.08594,1.08398 1.0852257,1.0852257 0 0 1 -1.08594,-1.08398 1.0852257,1.0852257 0 0 1 1.08594,-1.08594 z m 0,10.52735 a 1.0852257,1.0852257 0 0 1 1.08594,1.08593 1.0852257,1.0852257 0 0 1 -1.08594,1.08399 1.0852257,1.0852257 0 0 1 -1.08594,-1.08399 1.0852257,1.0852257 0 0 1 1.08594,-1.08593 z"
         transform="matrix(0.26458333,0,0,0.26458333,74.752165,26.053867)"
         id="rect5804"
         inkscape:connector-curvature="0" />
      <path
         style="color:#000000;font-style:normal;font-variant:normal;font-weight:normal;font-stretch:normal;font-size:medium;line-height:normal;font-family:sans-serif;font-variant-ligatures:normal;font-variant-position:normal;font-variant-caps:normal;font-variant-numeric:normal;font-variant-alternates:normal;font-feature-settings:normal;text-indent:0;text-align:start;text-decoration:none;text-decoration-line:none;text-decoration-style:solid;text-decoration-color:#000000;letter-spacing:normal;word-spacing:normal;text-transform:none;writing-mode:lr-tb;direction:ltr;text-orientation:mixed;dominant-baseline:auto;baseline-shift:baseline;text-anchor:start;white-space:normal;shape-padding:0;clip-rule:nonzero;display:inline;overflow:visible;visibility:visible;opacity:1;isolation:auto;mix-blend-mode:normal;color-interpolation:sRGB;color-interpolation-filters:linearRGB;solid-color:#000000;solid-opacity:1;vector-effect:none;fill:#000000;fill-opacity:1;fill-rule:nonzero;stroke:none;stroke-width:0.4807294;stroke-linecap:round;stroke-linejoin:miter;stroke-miterlimit:4;stroke-dasharray:none;stroke-dashoffset:0.74834645;stroke-opacity:1;color-rendering:auto;image-rendering:auto;shape-rendering:auto;text-rendering:auto;enable-background:accumulate"
         d="m 132.37109,236.84961 c 2.24659,0 4.0625,1.81591 4.0625,4.0625 0,2.24659 -1.81591,4.0625 -4.0625,4.0625 -2.24658,0 -4.0625,-1.81591 -4.0625,-4.0625 0,-2.24659 1.81592,-4.0625 4.0625,-4.0625 z"
         id="circle5816"
         inkscape:connector-curvature="0" />
      <path
         style="opacity:1;fill:#000000;fill-opacity:0.99492385;stroke:none;stroke-width:1.3341732;stroke-linecap:round;stroke-linejoin:miter;stroke-miterlimit:4;stroke-dasharray:none;stroke-dashoffset:0.74834645;stroke-opacity:1"
         d="m 189.58984,868.92578 a 11.428572,11.428572 0 0 0 -10.39843,6.71875 h 3.06054 a 8.7290036,8.7290036 0 0 1 7.33789,-4.01953 8.7290036,8.7290036 0 0 1 7.34961,4.01953 h 3.05274 a 11.428572,11.428572 0 0 0 -10.40235,-6.71875 z"
         transform="matrix(0.26458333,0,0,0.26458333,74.752165,26.053867)"
         id="path5340-8"
         inkscape:connector-curvature="0" />
      <path
         style="color:#000000;font-style:normal;font-variant:normal;font-weight:normal;font-stretch:normal;font-size:medium;line-height:normal;font-family:sans-serif;font-variant-ligatures:normal;font-variant-position:normal;font-variant-caps:normal;font-variant-numeric:normal;font-variant-alternates:normal;font-feature-settings:normal;text-indent:0;text-align:start;text-decoration:none;text-decoration-line:none;text-decoration-style:solid;text-decoration-color:#000000;letter-spacing:normal;word-spacing:normal;text-transform:none;writing-mode:lr-tb;direction:ltr;text-orientation:mixed;dominant-baseline:auto;baseline-shift:baseline;text-anchor:start;white-space:normal;shape-padding:0;clip-rule:nonzero;display:inline;overflow:visible;visibility:visible;opacity:1;isolation:auto;mix-blend-mode:normal;color-interpolation:sRGB;color-interpolation-filters:linearRGB;solid-color:#000000;solid-opacity:1;vector-effect:none;fill:#000000;fill-opacity:1;fill-rule:nonzero;stroke:none;stroke-width:1.16204095;stroke-linecap:round;stroke-linejoin:miter;stroke-miterlimit:4;stroke-dasharray:none;stroke-dashoffset:0.74834645;stroke-opacity:1;color-rendering:auto;image-rendering:auto;shape-rendering:auto;text-rendering:auto;enable-background:accumulate"
         d="M 4.4707031 80.189453 C 1.9843787 80.189453 0 82.17387 0 84.660156 L 0 106.89258 C 0 109.37883 1.9843787 111.36328 4.4707031 111.36328 L 32.767578 111.36328 C 35.253865 111.36328 37.238281 109.37883 37.238281 106.89258 L 37.238281 84.660156 C 37.238281 82.17387 35.253865 80.189453 32.767578 80.189453 L 4.4707031 80.189453 z M 15.960938 87.509766 L 21.279297 87.509766 L 21.279297 93.486328 L 27.255859 93.486328 L 27.255859 98.804688 L 21.279297 98.804688 L 21.279297 104.7832 L 15.960938 104.7832 L 15.960938 98.804688 L 9.984375 98.804688 L 9.984375 93.486328 L 15.960938 93.486328 L 15.960938 88.089844 L 15.960938 87.509766 z "
         id="path5431"
         transform="matrix(0.26458333,0,0,0.26458333,119.98816,236.84961)" />
    </g>
  </g>
</svg>
