<?xml version="1.0" encoding="UTF-8" standalone="no"?>
<!-- Created with Inkscape (http://www.inkscape.org/) -->

<svg
   xmlns:dc="http://purl.org/dc/elements/1.1/"
   xmlns:cc="http://creativecommons.org/ns#"
   xmlns:rdf="http://www.w3.org/1999/02/22-rdf-syntax-ns#"
   xmlns:svg="http://www.w3.org/2000/svg"
   xmlns="http://www.w3.org/2000/svg"
   xmlns:sodipodi="http://sodipodi.sourceforge.net/DTD/sodipodi-0.dtd"
   xmlns:inkscape="http://www.inkscape.org/namespaces/inkscape"
   width="18.42359mm"
   height="38.811974mm"
   viewBox="0 0 18.423589 38.811973"
   version="1.1"
   id="svg4701"
   sodipodi:docname="person.svg"
   inkscape:version="0.92.1 r15371"
   inkscape:export-filename="/home/juanar/Documentos/Proyectos/leonidas/PNG/person.png"
   inkscape:export-xdpi="299.73227"
   inkscape:export-ydpi="299.73227">
  <title
     id="title5410">Leónidas Life Support Icon Set</title>
  <defs
     id="defs4695" />
  <sodipodi:namedview
     id="base"
     pagecolor="#ffffff"
     bordercolor="#666666"
     borderopacity="1.0"
     inkscape:pageopacity="0.0"
     inkscape:pageshadow="2"
     inkscape:zoom="2.2419756"
     inkscape:cx="-56.679892"
     inkscape:cy="59.514107"
     inkscape:document-units="mm"
     inkscape:current-layer="g5045"
     showgrid="false"
     fit-margin-top="0"
     fit-margin-left="0"
     fit-margin-right="0"
     fit-margin-bottom="0"
     inkscape:window-width="1362"
     inkscape:window-height="704"
     inkscape:window-x="0"
     inkscape:window-y="0"
     inkscape:window-maximized="1" />
  <metadata
     id="metadata4698">
    <rdf:RDF>
      <cc:Work
         rdf:about="">
        <dc:format>image/svg+xml</dc:format>
        <dc:type
           rdf:resource="http://purl.org/dc/dcmitype/StillImage" />
        <dc:title>Leónidas Life Support Icon Set</dc:title>
        <cc:license
           rdf:resource="https://www.gnu.org/licenses/gpl-3.0.en.html" />
        <dc:creator>
          <cc:Agent>
            <dc:title>Arbotti Juan Manuel</dc:title>
          </cc:Agent>
        </dc:creator>
        <dc:rights>
          <cc:Agent>
            <dc:title>GNU GPL V3</dc:title>
          </cc:Agent>
        </dc:rights>
        <dc:description>This is an icon set to use in any project realted to basic or advanced life support. Please, don't forget to mention the author in bilbiography.</dc:description>
        <dc:subject>
          <rdf:Bag>
            <rdf:li>life support</rdf:li>
            <rdf:li>medical</rdf:li>
            <rdf:li>cpr</rdf:li>
          </rdf:Bag>
        </dc:subject>
      </cc:Work>
    </rdf:RDF>
  </metadata>
  <g
     inkscape:label="Capa 1"
     inkscape:groupmode="layer"
     id="layer1"
     transform="translate(-20.627841,-33.507618)">
    <g
       id="g4705"
       transform="matrix(0.33971987,0,0,0.33971987,11.36357,20.277033)">
      <g
         id="g5408"
         transform="translate(-8.6227382,-5.4902534)">
        <g
           id="g5338"
           transform="translate(8.6228501,2.0793992)">
          <g
             id="g4499"
             transform="matrix(1.1925956,0,0,1.1925956,6.1084013,50.242724)">
            <g
               id="g5076"
               transform="matrix(2.4682313,0,0,2.4682313,-5.1381439,-147.81317)">
              <g
                 id="g5045"
                 transform="matrix(0.33971987,0,0,0.33971987,7.4660027,55.100765)">
                <path
                   style="opacity:1;fill:#000000;fill-opacity:1;stroke:none;stroke-width:1.61272442;stroke-linecap:round;stroke-linejoin:miter;stroke-miterlimit:4;stroke-dasharray:none;stroke-dashoffset:0.74834645;stroke-opacity:1"
                   d="M 12.972656 26.109375 C 8.4449402 26.109375 4.5652769 27.543 2.7441406 29.621094 C 1.0882929 31.23453 8.8817842e-16 33.985098 0 37.123047 L 0 71.679688 C 0 76.673932 2.7528258 80.695312 6.171875 80.695312 C 9.5909241 80.695312 12.34375 76.673932 12.34375 71.679688 L 12.34375 38.435547 C 12.553323 38.441764 12.760132 38.453125 12.972656 38.453125 L 14.34375 38.453125 L 14.34375 79.806641 C 14.34375 82.5261 15.40966 84.979711 17.136719 86.777344 C 16.867188 87.916006 16.716797 89.129514 16.716797 90.394531 L 16.716797 135.04297 C 16.716797 141.4957 20.503864 146.69141 25.208984 146.69141 C 29.914104 146.69141 33.703125 141.4957 33.703125 135.04297 L 33.703125 90.394531 C 33.703125 90.191223 33.687118 89.993656 33.679688 89.792969 L 35.763672 89.792969 C 35.756241 89.993656 35.740234 90.191223 35.740234 90.394531 L 35.740234 135.04297 C 35.740234 141.4957 39.529255 146.69141 44.234375 146.69141 C 48.939496 146.69141 52.726563 141.4957 52.726562 135.04297 L 52.726562 90.394531 C 52.726562 89.188177 52.593681 88.026291 52.347656 86.933594 C 54.163703 85.123703 55.289063 82.60453 55.289062 79.806641 L 55.289062 38.453125 L 56.447266 38.453125 C 56.731253 38.453125 57.010433 38.440741 57.289062 38.429688 L 57.289062 71.681641 C 57.289062 76.675886 60.041887 80.697266 63.460938 80.697266 C 66.879985 80.697266 69.632812 76.675886 69.632812 71.681641 L 69.632812 37.125 C 69.632813 33.330904 68.041852 30.103866 65.779297 28.769531 C 63.736185 27.161479 60.327257 26.109375 56.447266 26.109375 L 48.994141 26.109375 C 45.974229 31.038247 40.555198 34.341797 34.359375 34.341797 C 28.163551 34.341797 22.742568 31.038247 19.722656 26.109375 L 12.972656 26.109375 z "
                   transform="matrix(0.77882795,0,0,0.77882795,5.3125998,6.2003289)"
                   id="rect4856" />
                <path
                   style="color:#000000;font-style:normal;font-variant:normal;font-weight:normal;font-stretch:normal;font-size:medium;line-height:normal;font-family:sans-serif;font-variant-ligatures:normal;font-variant-position:normal;font-variant-caps:normal;font-variant-numeric:normal;font-variant-alternates:normal;font-feature-settings:normal;text-indent:0;text-align:start;text-decoration:none;text-decoration-line:none;text-decoration-style:solid;text-decoration-color:#000000;letter-spacing:normal;word-spacing:normal;text-transform:none;writing-mode:lr-tb;direction:ltr;text-orientation:mixed;dominant-baseline:auto;baseline-shift:baseline;text-anchor:start;white-space:normal;shape-padding:0;clip-rule:nonzero;display:inline;overflow:visible;visibility:visible;opacity:1;isolation:auto;mix-blend-mode:normal;color-interpolation:sRGB;color-interpolation-filters:linearRGB;solid-color:#000000;solid-opacity:1;vector-effect:none;fill:#000000;fill-opacity:1;fill-rule:nonzero;stroke:none;stroke-width:1.4150759;stroke-linecap:round;stroke-linejoin:miter;stroke-miterlimit:4;stroke-dasharray:none;stroke-dashoffset:0.74834645;stroke-opacity:1;color-rendering:auto;image-rendering:auto;shape-rendering:auto;text-rendering:auto;enable-background:accumulate"
                   d="m 32.072266,7.6152344 c 6.613058,0 11.958984,5.3459256 11.958984,11.9589846 0,6.613058 -5.345926,11.958984 -11.958984,11.958984 -6.613059,0 -11.958985,-5.345926 -11.958985,-11.958984 0,-6.613059 5.345926,-11.9589846 11.958985,-11.9589846 z"
                   id="circle4870" />
              </g>
            </g>
          </g>
        </g>
      </g>
    </g>
  </g>
</svg>
