<?xml version="1.0" encoding="UTF-8" standalone="no"?>
<!-- Created with Inkscape (http://www.inkscape.org/) -->

<svg
   xmlns:dc="http://purl.org/dc/elements/1.1/"
   xmlns:cc="http://creativecommons.org/ns#"
   xmlns:rdf="http://www.w3.org/1999/02/22-rdf-syntax-ns#"
   xmlns:svg="http://www.w3.org/2000/svg"
   xmlns="http://www.w3.org/2000/svg"
   xmlns:sodipodi="http://sodipodi.sourceforge.net/DTD/sodipodi-0.dtd"
   xmlns:inkscape="http://www.inkscape.org/namespaces/inkscape"
   width="18.423681mm"
   height="39.318031mm"
   viewBox="0 0 18.423681 39.318031"
   version="1.1"
   id="svg5522"
   inkscape:version="0.92.1 r15371"
   sodipodi:docname="rescue-medic.svg">
  <defs
     id="defs5516" />
  <sodipodi:namedview
     id="base"
     pagecolor="#ffffff"
     bordercolor="#666666"
     borderopacity="1.0"
     inkscape:pageopacity="0.0"
     inkscape:pageshadow="2"
     inkscape:zoom="7.9195959"
     inkscape:cx="4.8782171"
     inkscape:cy="104.1226"
     inkscape:document-units="mm"
     inkscape:current-layer="layer1"
     showgrid="false"
     inkscape:window-width="1362"
     inkscape:window-height="704"
     inkscape:window-x="0"
     inkscape:window-y="0"
     inkscape:window-maximized="1"
     fit-margin-top="0"
     fit-margin-left="0"
     fit-margin-right="0"
     fit-margin-bottom="0" />
  <metadata
     id="metadata5519">
    <rdf:RDF>
      <cc:Work
         rdf:about="">
        <dc:format>image/svg+xml</dc:format>
        <dc:type
           rdf:resource="http://purl.org/dc/dcmitype/StillImage" />
        <dc:title />
      </cc:Work>
    </rdf:RDF>
  </metadata>
  <g
     inkscape:label="Capa 1"
     inkscape:groupmode="layer"
     id="layer1"
     transform="translate(-107.96085,-183.32884)">
    <path
       style="opacity:1;fill:#000000;fill-opacity:1;stroke:none;stroke-width:1.61272442;stroke-linecap:round;stroke-linejoin:miter;stroke-miterlimit:4;stroke-dasharray:none;stroke-dashoffset:0.74834645;stroke-opacity:1"
       d="M 12.972656 28.023438 C 8.4476163 28.023438 4.5686237 29.453207 2.7460938 31.529297 C 1.0885838 33.142327 0 35.897309 0 39.037109 L 0 73.59375 C 0 78.58798 2.752805 82.607422 6.171875 82.607422 C 9.590915 82.607422 12.34375 78.58798 12.34375 73.59375 L 12.34375 40.347656 C 12.55351 40.355656 12.760136 40.367188 12.972656 40.367188 L 14.34375 40.367188 L 14.34375 70.962891 L 55.289062 70.962891 L 55.289062 40.367188 L 56.447266 40.367188 C 56.731106 40.367188 57.010433 40.35505 57.289062 40.34375 L 57.289062 73.595703 C 57.289062 78.589973 60.041868 82.611328 63.460938 82.611328 C 66.879977 82.611328 69.632812 78.589973 69.632812 73.595703 L 69.632812 39.039062 C 69.632812 35.244983 68.041837 32.017914 65.779297 30.683594 C 63.736167 29.075514 60.327256 28.025381 56.447266 28.025391 L 48.994141 28.025391 C 45.97349 32.95257 40.55381 36.255958 34.359375 36.255859 C 28.16494 36.255958 22.74526 32.95257 19.724609 28.025391 L 12.972656 28.023438 z M 43.5 38.667969 L 46.603516 38.667969 L 46.603516 43.126953 L 51.0625 43.126953 L 51.0625 46.228516 L 46.603516 46.228516 L 46.603516 50.6875 L 43.5 50.6875 L 43.5 46.228516 L 39.042969 46.228516 L 39.042969 43.126953 L 43.5 43.126953 L 43.5 38.667969 z M 14.34375 73.375 L 14.34375 81.720703 C 14.34375 84.440173 15.409929 86.893756 17.136719 88.691406 C 16.867439 89.829606 16.716797 91.042241 16.716797 92.306641 L 16.716797 136.95703 C 16.716797 143.40976 20.503864 148.60352 25.208984 148.60352 C 29.914104 148.60352 33.703125 143.40976 33.703125 136.95703 L 33.703125 92.306641 C 33.703125 92.104681 33.686987 91.908384 33.679688 91.708984 L 35.763672 91.708984 C 35.756672 91.908384 35.740234 92.104681 35.740234 92.306641 L 35.740234 136.95703 C 35.740234 143.40976 39.529255 148.60352 44.234375 148.60352 C 48.939495 148.60352 52.726562 143.40976 52.726562 136.95703 L 52.726562 92.306641 C 52.726562 91.100991 52.593416 89.939826 52.347656 88.847656 C 54.163486 87.037736 55.289062 84.518653 55.289062 81.720703 L 55.289062 73.375 L 14.34375 73.375 z "
       transform="matrix(0.26458333,0,0,0.26458333,107.96085,183.32884)"
       id="rect5822" />
    <path
       inkscape:connector-curvature="0"
       id="circle5834"
       d="m 113.09336,187.57046 h 7.91786 c 0.0555,0.26657 0.10224,0.53564 0.10335,0.80822 -2.4e-4,2.24641 -1.81633,4.06233 -4.0628,4.06229 -2.24612,4e-5 -4.06199,-1.81533 -4.0628,-4.06125 v -5.1e-4 c 0,-3.4e-4 0,-6.8e-4 0,-0.001 0.002,-0.27247 0.0485,-0.54133 0.10439,-0.8077 z"
       style="color:#000000;font-style:normal;font-variant:normal;font-weight:normal;font-stretch:normal;font-size:medium;line-height:normal;font-family:sans-serif;font-variant-ligatures:normal;font-variant-position:normal;font-variant-caps:normal;font-variant-numeric:normal;font-variant-alternates:normal;font-feature-settings:normal;text-indent:0;text-align:start;text-decoration:none;text-decoration-line:none;text-decoration-style:solid;text-decoration-color:#000000;letter-spacing:normal;word-spacing:normal;text-transform:none;writing-mode:lr-tb;direction:ltr;text-orientation:mixed;dominant-baseline:auto;baseline-shift:baseline;text-anchor:start;white-space:normal;shape-padding:0;clip-rule:nonzero;display:inline;overflow:visible;visibility:visible;opacity:1;isolation:auto;mix-blend-mode:normal;color-interpolation:sRGB;color-interpolation-filters:linearRGB;solid-color:#000000;solid-opacity:1;vector-effect:none;fill:#000000;fill-opacity:1;fill-rule:nonzero;stroke:none;stroke-width:0.4807294;stroke-linecap:round;stroke-linejoin:miter;stroke-miterlimit:4;stroke-dasharray:none;stroke-dashoffset:0.74834645;stroke-opacity:1;color-rendering:auto;image-rendering:auto;shape-rendering:auto;text-rendering:auto;enable-background:accumulate" />
    <path
       inkscape:connector-curvature="0"
       id="circle5922"
       d="m 117.05332,183.32884 c -1.82592,0.003 -3.59923,1.37419 -4.85396,3.76101 h 9.70483 c -1.25352,-2.38443 -3.02473,-3.75544 -4.8488,-3.76101 z m -0.2682,0.91002 h 0.46302 v 0.66611 h 0.66559 v 0.46302 h -0.66559 v 0.66559 h -0.46302 v -0.66559 h -0.66611 v -0.46302 h 0.66611 z"
       style="color:#000000;font-style:normal;font-variant:normal;font-weight:normal;font-stretch:normal;font-size:medium;line-height:normal;font-family:sans-serif;font-variant-ligatures:normal;font-variant-position:normal;font-variant-caps:normal;font-variant-numeric:normal;font-variant-alternates:normal;font-feature-settings:normal;text-indent:0;text-align:start;text-decoration:none;text-decoration-line:none;text-decoration-style:solid;text-decoration-color:#000000;letter-spacing:normal;word-spacing:normal;text-transform:none;writing-mode:lr-tb;direction:ltr;text-orientation:mixed;dominant-baseline:auto;baseline-shift:baseline;text-anchor:start;white-space:normal;shape-padding:0;clip-rule:nonzero;display:inline;overflow:visible;visibility:visible;opacity:1;isolation:auto;mix-blend-mode:normal;color-interpolation:sRGB;color-interpolation-filters:linearRGB;solid-color:#000000;solid-opacity:1;vector-effect:none;fill:#000000;fill-opacity:1;fill-rule:nonzero;stroke:none;stroke-width:0.98694581;stroke-linecap:round;stroke-linejoin:miter;stroke-miterlimit:4;stroke-dasharray:none;stroke-dashoffset:0.74834645;stroke-opacity:1;color-rendering:auto;image-rendering:auto;shape-rendering:auto;text-rendering:auto;enable-background:accumulate" />
  </g>
</svg>
